{
.appVersion = "1286";
copyright = "Copyright 2017 Google Inc. All Rights Reserved.";
customParameters = (
{
name = glyphOrder;
value = (
.notdef,
NULL,
CR,
space,
uni1980,
uni1981,
uni1982,
uni1983,
uni1984,
uni1985,
uni1986,
uni1987,
uni1988,
uni1989,
uni198A,
uni198B,
uni198C,
uni198D,
uni198E,
uni198F,
uni1990,
uni1991,
uni1992,
uni1993,
uni1994,
uni1995,
uni1996,
uni1997,
uni1998,
uni1999,
uni199A,
uni199B,
uni199C,
uni199D,
uni199E,
uni199F,
uni19A0,
uni19A1,
uni19A2,
uni19A3,
uni19A4,
uni19A5,
uni19A6,
uni19A7,
uni19A8,
uni19A9,
uni19AA,
uni19AB,
uni19B0,
uni19B1,
uni19B2,
uni19B3,
uni19B4,
uni19B5,
uni19B6,
uni19B7,
uni19B8,
uni19B9,
uni19BA,
uni19BB,
uni19BC,
uni19BD,
uni19BE,
uni19BF,
uni19C0,
uni19C1,
uni19C2,
uni19C3,
uni19C4,
uni19C5,
uni19C6,
uni19C7,
uni19C8,
uni19C9,
uni19D0,
uni19D1,
uni19D2,
uni19D3,
uni19D4,
uni19D5,
uni19D6,
uni19D7,
uni19D8,
uni19D9,
uni19DA,
uni19DE,
uni19DF,
"finalcons-mark",
belowmk1,
belowmk2,
abovemk1,
uni00A0,
uni200C,
uni200D,
uni25CC
);
},
{
name = description;
value = "Designed by Monotype design team.";
},
{
name = license;
value = "This Font Software is licensed under the SIL Open Font License, Version 1.1. This Font Software is distributed on an \"AS IS\" BASIS, WITHOUT WARRANTIES OR CONDITIONS OF ANY KIND, either express or implied. See the SIL Open Font License for the specific language, permissions and limitations governing your use of this Font Software.";
},
{
name = licenseURL;
value = "http://scripts.sil.org/OFL";
},
{
name = vendorID;
value = GOOG;
},
{
name = unicodeRanges;
value = (
0,
1,
31,
45,
95
);
},
{
name = trademark;
value = "Noto is a trademark of Google Inc.";
},
{
name = "Has WWS Names";
value = 1;
},
{
name = versionString;
value = "Version 2.000";
},
{
name = fsType;
value = (
);
},
{
name = codePageRanges;
value = (
"1252"
);
}
);
date = "2017-03-02 22:34:43 +0000";
designer = "Monotype Design Team";
designerURL = "http://www.monotype.com/studio";
disablesAutomaticAlignment = 1;

glyphs = (
{
glyphname = .notdef;
lastChange = "2017-03-13 14:11:56 +0000";
layers = (
{
hints = (
{
origin = "{0, 0}";
target = "{1, 3}";
type = Stem;
},
{
origin = "{1, 1}";
target = "{0, 2}";
type = Stem;
},
{
horizontal = 1;
origin = "{0, 0}";
target = "{1, 3}";
type = Stem;
},
{
horizontal = 1;
origin = "{1, 0}";
target = "{0, 3}";
type = Stem;
}
);
layerId = UUID0;
paths = (
{
closed = 1;
nodes = (
"505 0 LINE",
"505 714 LINE",
"94 714 LINE",
"94 0 LINE"
);
},
{
closed = 1;
nodes = (
"145 663 LINE",
"454 663 LINE",
"454 51 LINE",
"145 51 LINE"
);
}
);
width = 600;
}
);
},
{
glyphname = uni1980;
lastChange = "2017-03-13 14:11:56 +0000";
layers = (
{
layerId = UUID0;
paths = (
{
closed = 1;
nodes = (
"811 -278 OFFCURVE",
"871 -167 OFFCURVE",
"871 -85 CURVE SMOOTH",
"871 -29 OFFCURVE",
"838 19 OFFCURVE",
"781 46 CURVE",
"841 91 OFFCURVE",
"880 171 OFFCURVE",
"880 270 CURVE SMOOTH",
"880 468 OFFCURVE",
"764 546 OFFCURVE",
"645 546 CURVE SMOOTH",
"585 546 OFFCURVE",
"510 526 OFFCURVE",
"448 452 CURVE",
"404 518 OFFCURVE",
"333 546 OFFCURVE",
"253 546 CURVE SMOOTH",
"184 546 OFFCURVE",
"108 516 OFFCURVE",
"58 447 CURVE",
"122 410 LINE",
"155 460 OFFCURVE",
"208 479 OFFCURVE",
"249 479 CURVE SMOOTH",
"346 479 OFFCURVE",
"404 405 OFFCURVE",
"404 271 CURVE SMOOTH",
"404 142 OFFCURVE",
"345 58 OFFCURVE",
"254 58 CURVE SMOOTH",
"186 58 OFFCURVE",
"125 106 OFFCURVE",
"104 153 CURVE",
"39 116 LINE",
"98 19 OFFCURVE",
"183 -10 OFFCURVE",
"254 -10 CURVE SMOOTH",
"387 -10 OFFCURVE",
"494 80 OFFCURVE",
"494 270 CURVE SMOOTH",
"494 300 OFFCURVE",
"492 328 OFFCURVE",
"487 353 CURVE",
"509 427 OFFCURVE",
"558 479 OFFCURVE",
"634 479 CURVE SMOOTH",
"727 479 OFFCURVE",
"790 407 OFFCURVE",
"790 273 CURVE SMOOTH",
"790 139 OFFCURVE",
"731 67 OFFCURVE",
"653 67 CURVE SMOOTH",
"646 67 OFFCURVE",
"640 67 OFFCURVE",
"634 67 CURVE",
"634 0 LINE",
"639 0 OFFCURVE",
"644 0 OFFCURVE",
"649 0 CURVE SMOOTH",
"757 0 OFFCURVE",
"782 -48 OFFCURVE",
"782 -86 CURVE SMOOTH",
"782 -148 OFFCURVE",
"750 -211 OFFCURVE",
"623 -211 CURVE SMOOTH",
"547 -211 OFFCURVE",
"477 -168 OFFCURVE",
"439 -122 CURVE",
"380 -166 LINE",
"444 -246 OFFCURVE",
"553 -278 OFFCURVE",
"623 -278 CURVE SMOOTH"
);
}
);
width = 929;
}
);
unicode = 1980;
},
{
glyphname = uni1982;
lastChange = "2017-03-13 14:11:56 +0000";
layers = (
{
layerId = UUID0;
paths = (
{
closed = 1;
nodes = (
"321 -10 OFFCURVE",
"359 -2 OFFCURVE",
"397 20 CURVE",
"357 77 LINE",
"333 63 OFFCURVE",
"307 58 OFFCURVE",
"284 58 CURVE SMOOTH",
"196 58 OFFCURVE",
"139 126 OFFCURVE",
"139 275 CURVE SMOOTH",
"139 404 OFFCURVE",
"192 479 OFFCURVE",
"283 479 CURVE SMOOTH",
"361 479 OFFCURVE",
"406 416 OFFCURVE",
"413 324 CURVE",
"496 324 LINE",
"502 416 OFFCURVE",
"547 479 OFFCURVE",
"625 479 CURVE SMOOTH",
"716 479 OFFCURVE",
"770 404 OFFCURVE",
"770 275 CURVE SMOOTH",
"770 126 OFFCURVE",
"712 58 OFFCURVE",
"624 58 CURVE SMOOTH",
"602 58 OFFCURVE",
"576 63 OFFCURVE",
"551 77 CURVE",
"511 20 LINE",
"549 -2 OFFCURVE",
"587 -10 OFFCURVE",
"628 -10 CURVE SMOOTH",
"743 -10 OFFCURVE",
"859 78 OFFCURVE",
"859 276 CURVE SMOOTH",
"859 451 OFFCURVE",
"755 546 OFFCURVE",
"628 546 CURVE SMOOTH",
"567 546 OFFCURVE",
"492 515 OFFCURVE",
"454 436 CURVE",
"416 515 OFFCURVE",
"340 546 OFFCURVE",
"280 546 CURVE SMOOTH",
"153 546 OFFCURVE",
"49 451 OFFCURVE",
"49 276 CURVE SMOOTH",
"49 78 OFFCURVE",
"165 -10 OFFCURVE",
"280 -10 CURVE SMOOTH"
);
}
);
width = 908;
}
);
unicode = 1982;
},
{
glyphname = uni1983;
lastChange = "2017-03-13 14:11:56 +0000";
layers = (
{
layerId = UUID0;
paths = (
{
closed = 1;
nodes = (
"400 -278 OFFCURVE",
"481 -154 OFFCURVE",
"481 2 CURVE SMOOTH",
"481 57 OFFCURVE",
"465 105 OFFCURVE",
"439 146 CURVE",
"466 193 OFFCURVE",
"479 248 OFFCURVE",
"479 297 CURVE SMOOTH",
"479 450 OFFCURVE",
"386 546 OFFCURVE",
"248 546 CURVE SMOOTH",
"170 546 OFFCURVE",
"95 522 OFFCURVE",
"43 447 CURVE",
"104 411 LINE",
"138 461 OFFCURVE",
"189 479 OFFCURVE",
"239 479 CURVE SMOOTH",
"307 479 OFFCURVE",
"390 442 OFFCURVE",
"390 304 CURVE SMOOTH",
"390 269 OFFCURVE",
"386 237 OFFCURVE",
"379 209 CURVE",
"337 241 OFFCURVE",
"285 258 OFFCURVE",
"229 258 CURVE SMOOTH",
"140 258 OFFCURVE",
"67 208 OFFCURVE",
"67 140 CURVE SMOOTH",
"67 82 OFFCURVE",
"112 24 OFFCURVE",
"230 24 CURVE SMOOTH",
"292 24 OFFCURVE",
"342 44 OFFCURVE",
"380 75 CURVE",
"388 49 OFFCURVE",
"391 21 OFFCURVE",
"391 -7 CURVE SMOOTH",
"391 -117 OFFCURVE",
"348 -211 OFFCURVE",
"232 -211 CURVE SMOOTH",
"162 -211 OFFCURVE",
"106 -174 OFFCURVE",
"77 -142 CURVE",
"20 -188 LINE",
"55 -230 OFFCURVE",
"126 -278 OFFCURVE",
"232 -278 CURVE SMOOTH"
);
},
{
closed = 1;
nodes = (
"186 92 OFFCURVE",
"149 111 OFFCURVE",
"149 146 CURVE SMOOTH",
"149 177 OFFCURVE",
"189 192 OFFCURVE",
"228 192 CURVE SMOOTH",
"282 192 OFFCURVE",
"321 171 OFFCURVE",
"347 140 CURVE",
"322 109 OFFCURVE",
"285 92 OFFCURVE",
"233 92 CURVE SMOOTH"
);
}
);
width = 530;
}
);
unicode = 1983;
},
{
glyphname = uni1984;
lastChange = "2017-03-13 14:11:56 +0000";
layers = (
{
layerId = UUID0;
paths = (
{
closed = 1;
nodes = (
"349 -10 OFFCURVE",
"409 95 OFFCURVE",
"455 180 CURVE SMOOTH",
"552 361 LINE SMOOTH",
"590 431 OFFCURVE",
"620 479 OFFCURVE",
"665 479 CURVE SMOOTH",
"722 479 OFFCURVE",
"775 421 OFFCURVE",
"775 278 CURVE SMOOTH",
"775 144 OFFCURVE",
"731 58 OFFCURVE",
"653 58 CURVE SMOOTH",
"616 58 OFFCURVE",
"584 70 OFFCURVE",
"560 105 CURVE",
"510 61 LINE",
"542 19 OFFCURVE",
"591 -10 OFFCURVE",
"654 -10 CURVE SMOOTH",
"764 -10 OFFCURVE",
"865 111 OFFCURVE",
"865 279 CURVE SMOOTH",
"865 444 OFFCURVE",
"777 546 OFFCURVE",
"666 546 CURVE SMOOTH",
"565 546 OFFCURVE",
"505 441 OFFCURVE",
"459 356 CURVE SMOOTH",
"361 175 LINE SMOOTH",
"323 105 OFFCURVE",
"293 58 OFFCURVE",
"249 58 CURVE SMOOTH",
"192 58 OFFCURVE",
"139 115 OFFCURVE",
"139 258 CURVE SMOOTH",
"139 392 OFFCURVE",
"183 479 OFFCURVE",
"261 479 CURVE SMOOTH",
"297 479 OFFCURVE",
"329 466 OFFCURVE",
"354 431 CURVE",
"403 476 LINE",
"372 518 OFFCURVE",
"323 546 OFFCURVE",
"259 546 CURVE SMOOTH",
"150 546 OFFCURVE",
"49 425 OFFCURVE",
"49 257 CURVE SMOOTH",
"49 92 OFFCURVE",
"137 -10 OFFCURVE",
"248 -10 CURVE SMOOTH"
);
},
{
closed = 1;
nodes = (
"667 -293 OFFCURVE",
"744 -223 OFFCURVE",
"744 -161 CURVE SMOOTH",
"744 -92 OFFCURVE",
"677 -39 OFFCURVE",
"503 -39 CURVE SMOOTH",
"388 -39 OFFCURVE",
"310 -76 OFFCURVE",
"310 -123 CURVE SMOOTH",
"310 -162 OFFCURVE",
"360 -188 OFFCURVE",
"436 -188 CURVE SMOOTH",
"459 -188 OFFCURVE",
"485 -185 OFFCURVE",
"504 -180 CURVE",
"485 -131 LINE",
"470 -133 OFFCURVE",
"450 -134 OFFCURVE",
"439 -134 CURVE SMOOTH",
"412 -134 OFFCURVE",
"383 -129 OFFCURVE",
"383 -118 CURVE SMOOTH",
"383 -108 OFFCURVE",
"417 -98 OFFCURVE",
"505 -98 CURVE SMOOTH",
"615 -98 OFFCURVE",
"671 -114 OFFCURVE",
"671 -159 CURVE SMOOTH",
"671 -193 OFFCURVE",
"618 -234 OFFCURVE",
"462 -234 CURVE SMOOTH",
"356 -234 OFFCURVE",
"237 -205 OFFCURVE",
"150 -144 CURVE",
"116 -192 LINE",
"164 -232 OFFCURVE",
"284 -293 OFFCURVE",
"461 -293 CURVE SMOOTH"
);
}
);
width = 914;
}
);
unicode = 1984;
},
{
glyphname = uni1985;
lastChange = "2017-03-13 14:11:56 +0000";
layers = (
{
layerId = UUID0;
paths = (
{
closed = 1;
nodes = (
"238 61 LINE",
"177 86 OFFCURVE",
"139 156 OFFCURVE",
"139 273 CURVE SMOOTH",
"139 396 OFFCURVE",
"190 479 OFFCURVE",
"306 479 CURVE SMOOTH",
"410 479 OFFCURVE",
"473 407 OFFCURVE",
"473 273 CURVE SMOOTH",
"473 156 OFFCURVE",
"435 86 OFFCURVE",
"374 61 CURVE",
"401 -5 LINE",
"481 39 OFFCURVE",
"563 122 OFFCURVE",
"563 263 CURVE SMOOTH",
"563 421 OFFCURVE",
"451 546 OFFCURVE",
"306 546 CURVE SMOOTH",
"159 546 OFFCURVE",
"49 426 OFFCURVE",
"49 263 CURVE SMOOTH",
"49 134 OFFCURVE",
"120 43 OFFCURVE",
"210 -5 CURVE"
);
}
);
width = 611;
}
);
unicode = 1985;
},
{
glyphname = uni1986;
lastChange = "2017-03-13 14:11:56 +0000";
layers = (
{
layerId = UUID0;
paths = (
{
closed = 1;
nodes = (
"239 63 LINE",
"149 111 OFFCURVE",
"136 205 OFFCURVE",
"136 313 CURVE SMOOTH",
"136 352 LINE SMOOTH",
"136 420 OFFCURVE",
"201 479 OFFCURVE",
"292 479 CURVE SMOOTH",
"396 479 OFFCURVE",
"459 407 OFFCURVE",
"459 273 CURVE SMOOTH",
"459 156 OFFCURVE",
"421 89 OFFCURVE",
"360 63 CURVE",
"387 -5 LINE",
"468 39 OFFCURVE",
"549 126 OFFCURVE",
"549 268 CURVE SMOOTH",
"549 451 OFFCURVE",
"431 546 OFFCURVE",
"292 546 CURVE SMOOTH",
"234 546 OFFCURVE",
"181 524 OFFCURVE",
"140 489 CURVE",
"150 671 OFFCURVE",
"189 782 OFFCURVE",
"317 782 CURVE SMOOTH",
"357 782 OFFCURVE",
"417 763 OFFCURVE",
"444 713 CURVE",
"509 764 LINE",
"456 832 OFFCURVE",
"387 850 OFFCURVE",
"330 850 CURVE SMOOTH",
"164 850 OFFCURVE",
"49 689 OFFCURVE",
"49 414 CURVE SMOOTH",
"49 328 LINE SMOOTH",
"49 171 OFFCURVE",
"89 54 OFFCURVE",
"211 -5 CURVE"
);
}
);
width = 598;
}
);
unicode = 1986;
},
{
glyphname = uni1987;
lastChange = "2017-03-13 14:11:56 +0000";
layers = (
{
layerId = UUID0;
paths = (
{
closed = 1;
nodes = (
"496 -278 OFFCURVE",
"598 -83 OFFCURVE",
"598 166 CURVE SMOOTH",
"598 393 OFFCURVE",
"499 546 OFFCURVE",
"314 546 CURVE SMOOTH",
"181 546 OFFCURVE",
"49 440 OFFCURVE",
"49 241 CURVE SMOOTH",
"49 59 OFFCURVE",
"102 -10 OFFCURVE",
"173 -10 CURVE SMOOTH",
"274 -10 OFFCURVE",
"270 121 OFFCURVE",
"305 121 CURVE SMOOTH",
"319 121 OFFCURVE",
"333 96 OFFCURVE",
"333 42 CURVE SMOOTH",
"333 29 OFFCURVE",
"333 15 OFFCURVE",
"332 0 CURVE",
"405 33 LINE",
"406 45 OFFCURVE",
"406 56 OFFCURVE",
"406 67 CURVE SMOOTH",
"406 142 OFFCURVE",
"374 188 OFFCURVE",
"315 188 CURVE SMOOTH",
"238 188 OFFCURVE",
"223 58 OFFCURVE",
"180 58 CURVE SMOOTH",
"153 58 OFFCURVE",
"139 106 OFFCURVE",
"139 252 CURVE SMOOTH",
"139 385 OFFCURVE",
"198 479 OFFCURVE",
"312 479 CURVE SMOOTH",
"427 479 OFFCURVE",
"508 395 OFFCURVE",
"508 166 CURVE SMOOTH",
"508 -17 OFFCURVE",
"486 -211 OFFCURVE",
"307 -211 CURVE SMOOTH",
"286 -211 OFFCURVE",
"254 -203 OFFCURVE",
"238 -194 CURVE",
"206 -259 LINE",
"239 -274 OFFCURVE",
"277 -278 OFFCURVE",
"305 -278 CURVE SMOOTH"
);
}
);
width = 646;
}
);
unicode = 1987;
},
{
glyphname = uni1988;
lastChange = "2017-03-13 14:11:56 +0000";
layers = (
{
layerId = UUID0;
paths = (
{
closed = 1;
nodes = (
"418 -10 OFFCURVE",
"529 118 OFFCURVE",
"529 269 CURVE SMOOTH",
"529 428 OFFCURVE",
"412 546 OFFCURVE",
"264 546 CURVE SMOOTH",
"167 546 OFFCURVE",
"61 481 OFFCURVE",
"61 388 CURVE SMOOTH",
"61 338 OFFCURVE",
"100 292 OFFCURVE",
"163 279 CURVE",
"163 276 LINE",
"89 258 OFFCURVE",
"49 213 OFFCURVE",
"49 153 CURVE SMOOTH",
"49 47 OFFCURVE",
"150 -10 OFFCURVE",
"256 -10 CURVE SMOOTH"
);
},
{
closed = 1;
nodes = (
"183 58 OFFCURVE",
"139 94 OFFCURVE",
"139 157 CURVE SMOOTH",
"139 197 OFFCURVE",
"164 242 OFFCURVE",
"256 242 CURVE SMOOTH",
"276 242 LINE",
"276 310 LINE",
"264 310 LINE SMOOTH",
"204 310 OFFCURVE",
"151 325 OFFCURVE",
"151 387 CURVE SMOOTH",
"151 433 OFFCURVE",
"181 479 OFFCURVE",
"275 479 CURVE SMOOTH",
"375 479 OFFCURVE",
"439 413 OFFCURVE",
"439 269 CURVE SMOOTH",
"439 115 OFFCURVE",
"369 58 OFFCURVE",
"276 58 CURVE SMOOTH"
);
}
);
width = 578;
}
);
unicode = 1988;
},
{
glyphname = uni1989;
lastChange = "2017-03-13 14:11:56 +0000";
layers = (
{
layerId = UUID0;
paths = (
{
closed = 1;
nodes = (
"315 -10 OFFCURVE",
"381 17 OFFCURVE",
"428 70 CURVE",
"488 4 OFFCURVE",
"573 -10 OFFCURVE",
"635 -10 CURVE SMOOTH",
"767 -10 OFFCURVE",
"880 85 OFFCURVE",
"880 275 CURVE SMOOTH",
"880 473 OFFCURVE",
"754 546 OFFCURVE",
"655 546 CURVE SMOOTH",
"588 546 OFFCURVE",
"531 526 OFFCURVE",
"492 469 CURVE",
"556 430 LINE",
"574 459 OFFCURVE",
"607 479 OFFCURVE",
"644 479 CURVE SMOOTH",
"720 479 OFFCURVE",
"790 421 OFFCURVE",
"790 276 CURVE SMOOTH",
"790 147 OFFCURVE",
"737 58 OFFCURVE",
"635 58 CURVE SMOOTH",
"568 58 OFFCURVE",
"497 103 OFFCURVE",
"474 148 CURVE",
"487 183 OFFCURVE",
"494 223 OFFCURVE",
"494 270 CURVE SMOOTH",
"494 468 OFFCURVE",
"382 546 OFFCURVE",
"253 546 CURVE SMOOTH",
"184 546 OFFCURVE",
"108 516 OFFCURVE",
"58 447 CURVE",
"122 410 LINE",
"155 460 OFFCURVE",
"208 479 OFFCURVE",
"249 479 CURVE SMOOTH",
"346 479 OFFCURVE",
"404 405 OFFCURVE",
"404 271 CURVE SMOOTH",
"404 142 OFFCURVE",
"345 58 OFFCURVE",
"254 58 CURVE SMOOTH",
"186 58 OFFCURVE",
"125 106 OFFCURVE",
"104 153 CURVE",
"39 116 LINE",
"98 19 OFFCURVE",
"178 -10 OFFCURVE",
"250 -10 CURVE SMOOTH"
);
}
);
width = 929;
}
);
unicode = 1989;
},
{
glyphname = uni198A;
lastChange = "2017-03-13 14:11:56 +0000";
layers = (
{
layerId = UUID0;
paths = (
{
closed = 1;
nodes = (
"468 -10 OFFCURVE",
"551 148 OFFCURVE",
"551 401 CURVE SMOOTH",
"551 674 OFFCURVE",
"564 782 OFFCURVE",
"641 782 CURVE SMOOTH",
"656 782 OFFCURVE",
"667 781 OFFCURVE",
"686 775 CURVE",
"719 837 LINE",
"691 847 OFFCURVE",
"677 850 OFFCURVE",
"656 850 CURVE SMOOTH",
"528 850 OFFCURVE",
"464 663 OFFCURVE",
"464 464 CURVE SMOOTH",
"464 364 LINE SMOOTH",
"464 159 OFFCURVE",
"402 58 OFFCURVE",
"264 58 CURVE SMOOTH",
"190 58 OFFCURVE",
"139 90 OFFCURVE",
"139 164 CURVE SMOOTH",
"139 208 OFFCURVE",
"166 257 OFFCURVE",
"266 257 CURVE SMOOTH",
"272 257 OFFCURVE",
"289 257 OFFCURVE",
"295 256 CURVE",
"295 315 LINE",
"235 315 OFFCURVE",
"139 318 OFFCURVE",
"139 408 CURVE SMOOTH",
"139 450 OFFCURVE",
"176 479 OFFCURVE",
"248 479 CURVE SMOOTH",
"280 479 OFFCURVE",
"328 468 OFFCURVE",
"355 449 CURVE",
"389 504 LINE",
"351 531 OFFCURVE",
"288 546 OFFCURVE",
"238 546 CURVE SMOOTH",
"113 546 OFFCURVE",
"49 476 OFFCURVE",
"49 408 CURVE SMOOTH",
"49 341 OFFCURVE",
"88 313 OFFCURVE",
"139 292 CURVE",
"81 267 OFFCURVE",
"49 216 OFFCURVE",
"49 160 CURVE SMOOTH",
"49 97 OFFCURVE",
"89 -10 OFFCURVE",
"263 -10 CURVE SMOOTH"
);
}
);
width = 621;
}
);
unicode = 198A;
},
{
glyphname = uni198B;
lastChange = "2017-03-13 14:11:56 +0000";
layers = (
{
layerId = UUID0;
paths = (
{
closed = 1;
nodes = (
"517 -278 OFFCURVE",
"577 -167 OFFCURVE",
"577 -85 CURVE SMOOTH",
"577 -26 OFFCURVE",
"541 23 OFFCURVE",
"477 51 CURVE",
"525 99 OFFCURVE",
"563 167 OFFCURVE",
"563 263 CURVE SMOOTH",
"563 421 OFFCURVE",
"451 546 OFFCURVE",
"306 546 CURVE SMOOTH",
"159 546 OFFCURVE",
"49 426 OFFCURVE",
"49 263 CURVE SMOOTH",
"49 134 OFFCURVE",
"120 43 OFFCURVE",
"210 -5 CURVE",
"238 61 LINE",
"177 86 OFFCURVE",
"139 156 OFFCURVE",
"139 273 CURVE SMOOTH",
"139 396 OFFCURVE",
"190 479 OFFCURVE",
"306 479 CURVE SMOOTH",
"410 479 OFFCURVE",
"473 407 OFFCURVE",
"473 273 CURVE SMOOTH",
"473 156 OFFCURVE",
"432 67 OFFCURVE",
"361 67 CURVE SMOOTH",
"354 67 OFFCURVE",
"348 67 OFFCURVE",
"340 67 CURVE",
"340 0 LINE",
"345 0 OFFCURVE",
"350 0 OFFCURVE",
"355 0 CURVE SMOOTH",
"463 0 OFFCURVE",
"488 -43 OFFCURVE",
"488 -86 CURVE SMOOTH",
"488 -148 OFFCURVE",
"457 -211 OFFCURVE",
"329 -211 CURVE SMOOTH",
"253 -211 OFFCURVE",
"183 -168 OFFCURVE",
"145 -122 CURVE",
"86 -166 LINE",
"150 -246 OFFCURVE",
"259 -278 OFFCURVE",
"329 -278 CURVE SMOOTH"
);
}
);
width = 611;
}
);
unicode = 198B;
},
{
glyphname = uni198C;
lastChange = "2017-03-13 14:11:56 +0000";
layers = (
{
layerId = UUID0;
paths = (
{
closed = 1;
nodes = (
"503 -278 OFFCURVE",
"563 -167 OFFCURVE",
"563 -85 CURVE SMOOTH",
"563 -26 OFFCURVE",
"526 19 OFFCURVE",
"462 46 CURVE",
"512 96 OFFCURVE",
"549 172 OFFCURVE",
"549 268 CURVE SMOOTH",
"549 451 OFFCURVE",
"431 546 OFFCURVE",
"292 546 CURVE SMOOTH",
"234 546 OFFCURVE",
"181 524 OFFCURVE",
"140 489 CURVE",
"150 671 OFFCURVE",
"189 782 OFFCURVE",
"317 782 CURVE SMOOTH",
"357 782 OFFCURVE",
"417 763 OFFCURVE",
"444 713 CURVE",
"509 764 LINE",
"456 832 OFFCURVE",
"387 850 OFFCURVE",
"330 850 CURVE SMOOTH",
"164 850 OFFCURVE",
"49 689 OFFCURVE",
"49 414 CURVE SMOOTH",
"49 328 LINE SMOOTH",
"49 171 OFFCURVE",
"89 54 OFFCURVE",
"211 -5 CURVE",
"239 63 LINE",
"149 111 OFFCURVE",
"136 205 OFFCURVE",
"136 313 CURVE SMOOTH",
"136 354 LINE SMOOTH",
"136 420 OFFCURVE",
"203 479 OFFCURVE",
"292 479 CURVE SMOOTH",
"396 479 OFFCURVE",
"459 407 OFFCURVE",
"459 273 CURVE SMOOTH",
"459 156 OFFCURVE",
"407 67 OFFCURVE",
"342 67 CURVE SMOOTH",
"326 67 LINE",
"326 0 LINE",
"331 0 OFFCURVE",
"336 0 OFFCURVE",
"341 0 CURVE SMOOTH",
"450 0 OFFCURVE",
"474 -43 OFFCURVE",
"474 -86 CURVE SMOOTH",
"474 -148 OFFCURVE",
"443 -211 OFFCURVE",
"315 -211 CURVE SMOOTH",
"240 -211 OFFCURVE",
"169 -168 OFFCURVE",
"131 -122 CURVE",
"72 -166 LINE",
"136 -246 OFFCURVE",
"245 -278 OFFCURVE",
"315 -278 CURVE SMOOTH"
);
}
);
width = 598;
}
);
unicode = 198C;
},
{
glyphname = uni198D;
lastChange = "2017-03-13 14:11:56 +0000";
layers = (
{
layerId = UUID0;
paths = (
{
closed = 1;
nodes = (
"340 -10 OFFCURVE",
"416 21 OFFCURVE",
"454 100 CURVE",
"492 21 OFFCURVE",
"567 -10 OFFCURVE",
"628 -10 CURVE SMOOTH",
"755 -10 OFFCURVE",
"859 85 OFFCURVE",
"859 260 CURVE SMOOTH",
"859 458 OFFCURVE",
"743 546 OFFCURVE",
"628 546 CURVE SMOOTH",
"587 546 OFFCURVE",
"549 538 OFFCURVE",
"511 516 CURVE",
"551 459 LINE",
"576 473 OFFCURVE",
"602 479 OFFCURVE",
"624 479 CURVE SMOOTH",
"712 479 OFFCURVE",
"770 410 OFFCURVE",
"770 261 CURVE SMOOTH",
"770 132 OFFCURVE",
"716 58 OFFCURVE",
"625 58 CURVE SMOOTH",
"547 58 OFFCURVE",
"502 120 OFFCURVE",
"496 212 CURVE",
"413 212 LINE",
"406 120 OFFCURVE",
"361 58 OFFCURVE",
"283 58 CURVE SMOOTH",
"192 58 OFFCURVE",
"139 132 OFFCURVE",
"139 261 CURVE SMOOTH",
"139 410 OFFCURVE",
"196 479 OFFCURVE",
"284 479 CURVE SMOOTH",
"307 479 OFFCURVE",
"333 473 OFFCURVE",
"357 459 CURVE",
"397 516 LINE",
"359 538 OFFCURVE",
"321 546 OFFCURVE",
"280 546 CURVE SMOOTH",
"165 546 OFFCURVE",
"49 458 OFFCURVE",
"49 260 CURVE SMOOTH",
"49 85 OFFCURVE",
"153 -10 OFFCURVE",
"280 -10 CURVE SMOOTH"
);
}
);
width = 908;
}
);
unicode = 198D;
},
{
glyphname = uni198E;
lastChange = "2017-03-13 14:11:56 +0000";
layers = (
{
layerId = UUID0;
paths = (
{
closed = 1;
nodes = (
"423 -10 OFFCURVE",
"505 110 OFFCURVE",
"505 269 CURVE SMOOTH",
"505 292 OFFCURVE",
"503 315 OFFCURVE",
"500 337 CURVE",
"510 422 OFFCURVE",
"553 479 OFFCURVE",
"625 479 CURVE SMOOTH",
"716 479 OFFCURVE",
"770 404 OFFCURVE",
"770 275 CURVE SMOOTH",
"770 141 OFFCURVE",
"712 58 OFFCURVE",
"624 58 CURVE SMOOTH",
"602 58 OFFCURVE",
"576 63 OFFCURVE",
"551 77 CURVE",
"511 20 LINE",
"549 -2 OFFCURVE",
"587 -10 OFFCURVE",
"628 -10 CURVE SMOOTH",
"753 -10 OFFCURVE",
"859 83 OFFCURVE",
"859 281 CURVE SMOOTH",
"859 456 OFFCURVE",
"755 546 OFFCURVE",
"628 546 CURVE SMOOTH",
"572 546 OFFCURVE",
"499 520 OFFCURVE",
"456 452 CURVE",
"417 510 OFFCURVE",
"357 546 OFFCURVE",
"278 546 CURVE SMOOTH",
"134 546 OFFCURVE",
"49 426 OFFCURVE",
"49 269 CURVE SMOOTH",
"49 110 OFFCURVE",
"143 -10 OFFCURVE",
"275 -10 CURVE SMOOTH"
);
},
{
closed = 1;
nodes = (
"188 58 OFFCURVE",
"139 142 OFFCURVE",
"139 269 CURVE SMOOTH",
"139 396 OFFCURVE",
"187 479 OFFCURVE",
"276 479 CURVE SMOOTH",
"371 479 OFFCURVE",
"416 396 OFFCURVE",
"416 269 CURVE SMOOTH",
"416 142 OFFCURVE",
"371 58 OFFCURVE",
"277 58 CURVE SMOOTH"
);
}
);
width = 908;
}
);
unicode = 198E;
},
{
glyphname = uni198F;
lastChange = "2017-03-13 14:11:56 +0000";
layers = (
{
layerId = UUID0;
paths = (
{
closed = 1;
nodes = (
"484 -278 OFFCURVE",
"581 -80 OFFCURVE",
"581 169 CURVE SMOOTH",
"581 373 OFFCURVE",
"478 546 OFFCURVE",
"278 546 CURVE SMOOTH",
"121 546 OFFCURVE",
"49 463 OFFCURVE",
"49 409 CURVE SMOOTH",
"49 343 OFFCURVE",
"88 313 OFFCURVE",
"139 292 CURVE",
"81 267 OFFCURVE",
"49 218 OFFCURVE",
"49 162 CURVE SMOOTH",
"49 83 OFFCURVE",
"101 -10 OFFCURVE",
"256 -10 CURVE SMOOTH",
"318 -10 OFFCURVE",
"358 7 OFFCURVE",
"398 28 CURVE",
"365 87 LINE",
"339 71 OFFCURVE",
"315 58 OFFCURVE",
"263 58 CURVE SMOOTH",
"196 58 OFFCURVE",
"139 90 OFFCURVE",
"139 164 CURVE SMOOTH",
"139 208 OFFCURVE",
"166 257 OFFCURVE",
"266 257 CURVE SMOOTH",
"272 257 OFFCURVE",
"289 257 OFFCURVE",
"295 256 CURVE",
"295 315 LINE",
"290 315 LINE SMOOTH",
"235 315 OFFCURVE",
"139 321 OFFCURVE",
"139 401 CURVE SMOOTH",
"139 452 OFFCURVE",
"203 479 OFFCURVE",
"277 479 CURVE SMOOTH",
"406 479 OFFCURVE",
"491 399 OFFCURVE",
"491 169 CURVE SMOOTH",
"491 -13 OFFCURVE",
"473 -211 OFFCURVE",
"290 -211 CURVE SMOOTH",
"270 -211 OFFCURVE",
"245 -205 OFFCURVE",
"222 -194 CURVE",
"189 -259 LINE",
"223 -273 OFFCURVE",
"253 -278 OFFCURVE",
"283 -278 CURVE SMOOTH"
);
}
);
width = 629;
}
);
unicode = 198F;
},
{
glyphname = uni1990;
lastChange = "2017-03-13 14:11:56 +0000";
layers = (
{
layerId = UUID0;
paths = (
{
closed = 1;
nodes = (
"792 -293 OFFCURVE",
"848 -226 OFFCURVE",
"848 -167 CURVE SMOOTH",
"848 -108 OFFCURVE",
"797 -50 OFFCURVE",
"646 -43 CURVE",
"650 -34 OFFCURVE",
"655 -22 OFFCURVE",
"658 -10 CURVE",
"766 -7 OFFCURVE",
"865 113 OFFCURVE",
"865 279 CURVE SMOOTH",
"865 444 OFFCURVE",
"777 546 OFFCURVE",
"666 546 CURVE SMOOTH",
"565 546 OFFCURVE",
"505 441 OFFCURVE",
"459 356 CURVE SMOOTH",
"361 175 LINE SMOOTH",
"323 105 OFFCURVE",
"293 58 OFFCURVE",
"249 58 CURVE SMOOTH",
"192 58 OFFCURVE",
"139 115 OFFCURVE",
"139 258 CURVE SMOOTH",
"139 392 OFFCURVE",
"183 479 OFFCURVE",
"261 479 CURVE SMOOTH",
"297 479 OFFCURVE",
"329 466 OFFCURVE",
"354 431 CURVE",
"403 476 LINE",
"372 518 OFFCURVE",
"323 546 OFFCURVE",
"259 546 CURVE SMOOTH",
"150 546 OFFCURVE",
"49 425 OFFCURVE",
"49 257 CURVE SMOOTH",
"49 92 OFFCURVE",
"137 -10 OFFCURVE",
"248 -10 CURVE SMOOTH",
"349 -10 OFFCURVE",
"409 95 OFFCURVE",
"455 180 CURVE SMOOTH",
"552 361 LINE SMOOTH",
"590 431 OFFCURVE",
"620 479 OFFCURVE",
"665 479 CURVE SMOOTH",
"722 479 OFFCURVE",
"775 421 OFFCURVE",
"775 278 CURVE SMOOTH",
"775 144 OFFCURVE",
"731 58 OFFCURVE",
"653 58 CURVE SMOOTH",
"616 58 OFFCURVE",
"584 70 OFFCURVE",
"560 105 CURVE",
"510 61 LINE",
"533 30 OFFCURVE",
"565 7 OFFCURVE",
"605 -3 CURVE",
"598 -30 OFFCURVE",
"587 -58 OFFCURVE",
"574 -84 CURVE",
"585 -101 LINE",
"680 -104 OFFCURVE",
"763 -111 OFFCURVE",
"763 -162 CURVE SMOOTH",
"763 -187 OFFCURVE",
"745 -227 OFFCURVE",
"619 -227 CURVE SMOOTH",
"525 -227 OFFCURVE",
"406 -204 OFFCURVE",
"361 -181 CURVE",
"333 -238 LINE",
"415 -275 OFFCURVE",
"520 -293 OFFCURVE",
"621 -293 CURVE SMOOTH"
);
}
);
width = 914;
}
);
unicode = 1990;
},
{
glyphname = uni1991;
lastChange = "2017-03-13 14:11:56 +0000";
layers = (
{
layerId = UUID0;
paths = (
{
closed = 1;
nodes = (
"537 -10 OFFCURVE",
"593 94 OFFCURVE",
"593 163 CURVE SMOOTH",
"593 220 OFFCURVE",
"560 265 OFFCURVE",
"501 292 CURVE",
"553 312 OFFCURVE",
"593 346 OFFCURVE",
"593 408 CURVE SMOOTH",
"593 476 OFFCURVE",
"528 546 OFFCURVE",
"403 546 CURVE SMOOTH",
"354 546 OFFCURVE",
"291 531 OFFCURVE",
"253 504 CURVE",
"286 449 LINE",
"313 468 OFFCURVE",
"361 479 OFFCURVE",
"394 479 CURVE SMOOTH",
"466 479 OFFCURVE",
"503 450 OFFCURVE",
"503 408 CURVE SMOOTH",
"503 318 OFFCURVE",
"406 317 OFFCURVE",
"346 315 CURVE",
"346 256 LINE",
"352 257 OFFCURVE",
"369 257 OFFCURVE",
"375 257 CURVE SMOOTH",
"476 257 OFFCURVE",
"503 208 OFFCURVE",
"503 164 CURVE SMOOTH",
"503 90 OFFCURVE",
"443 58 OFFCURVE",
"357 58 CURVE SMOOTH",
"233 58 OFFCURVE",
"139 171 OFFCURVE",
"139 401 CURVE SMOOTH",
"139 583 OFFCURVE",
"173 782 OFFCURVE",
"340 782 CURVE SMOOTH",
"380 782 OFFCURVE",
"434 763 OFFCURVE",
"461 713 CURVE",
"526 764 LINE",
"473 832 OFFCURVE",
"396 850 OFFCURVE",
"342 850 CURVE SMOOTH",
"171 850 OFFCURVE",
"49 638 OFFCURVE",
"49 401 CURVE SMOOTH",
"49 174 OFFCURVE",
"161 -10 OFFCURVE",
"356 -10 CURVE SMOOTH"
);
}
);
width = 642;
}
);
unicode = 1991;
},
{
glyphname = uni1992;
lastChange = "2017-03-13 14:11:56 +0000";
layers = (
{
layerId = UUID0;
paths = (
{
closed = 1;
nodes = (
"291 -10 OFFCURVE",
"345 13 OFFCURVE",
"374 86 CURVE",
"403 13 OFFCURVE",
"458 -10 OFFCURVE",
"515 -10 CURVE SMOOTH",
"642 -10 OFFCURVE",
"700 102 OFFCURVE",
"700 231 CURVE SMOOTH",
"700 428 OFFCURVE",
"544 546 OFFCURVE",
"375 546 CURVE SMOOTH",
"199 546 OFFCURVE",
"49 429 OFFCURVE",
"49 231 CURVE SMOOTH",
"49 102 OFFCURVE",
"106 -10 OFFCURVE",
"233 -10 CURVE SMOOTH"
);
},
{
closed = 1;
nodes = (
"167 58 OFFCURVE",
"139 120 OFFCURVE",
"139 237 CURVE SMOOTH",
"139 391 OFFCURVE",
"230 479 OFFCURVE",
"375 479 CURVE SMOOTH",
"515 479 OFFCURVE",
"610 391 OFFCURVE",
"610 237 CURVE SMOOTH",
"610 120 OFFCURVE",
"582 58 OFFCURVE",
"523 58 CURVE SMOOTH",
"465 58 OFFCURVE",
"427 102 OFFCURVE",
"416 210 CURVE",
"333 210 LINE",
"322 102 OFFCURVE",
"283 58 OFFCURVE",
"226 58 CURVE SMOOTH"
);
}
);
width = 749;
}
);
unicode = 1992;
},
{
glyphname = uni1993;
lastChange = "2017-03-13 14:11:56 +0000";
layers = (
{
layerId = UUID0;
paths = (
{
closed = 1;
nodes = (
"464 -278 OFFCURVE",
"524 -167 OFFCURVE",
"524 -85 CURVE SMOOTH",
"524 3 OFFCURVE",
"450 77 OFFCURVE",
"335 77 CURVE SMOOTH",
"278 77 OFFCURVE",
"251 63 OFFCURVE",
"209 63 CURVE SMOOTH",
"165 63 OFFCURVE",
"139 152 OFFCURVE",
"139 266 CURVE SMOOTH",
"139 404 OFFCURVE",
"183 479 OFFCURVE",
"297 479 CURVE SMOOTH",
"352 479 OFFCURVE",
"393 454 OFFCURVE",
"420 410 CURVE",
"485 460 LINE",
"436 516 OFFCURVE",
"377 546 OFFCURVE",
"297 546 CURVE SMOOTH",
"153 546 OFFCURVE",
"49 412 OFFCURVE",
"49 260 CURVE SMOOTH",
"49 87 OFFCURVE",
"124 -5 OFFCURVE",
"195 -5 CURVE SMOOTH",
"253 -5 OFFCURVE",
"288 10 OFFCURVE",
"327 10 CURVE SMOOTH",
"407 10 OFFCURVE",
"435 -43 OFFCURVE",
"435 -86 CURVE SMOOTH",
"435 -148 OFFCURVE",
"404 -211 OFFCURVE",
"276 -211 CURVE SMOOTH",
"201 -211 OFFCURVE",
"130 -168 OFFCURVE",
"92 -122 CURVE",
"33 -166 LINE",
"97 -246 OFFCURVE",
"206 -278 OFFCURVE",
"276 -278 CURVE SMOOTH"
);
}
);
width = 576;
}
);
unicode = 1993;
},
{
glyphname = uni1994;
lastChange = "2017-03-13 14:11:56 +0000";
layers = (
{
layerId = UUID0;
paths = (
{
closed = 1;
nodes = (
"506 -10 OFFCURVE",
"564 162 OFFCURVE",
"564 401 CURVE SMOOTH",
"564 682 OFFCURVE",
"581 782 OFFCURVE",
"655 782 CURVE SMOOTH",
"670 782 OFFCURVE",
"681 781 OFFCURVE",
"700 775 CURVE",
"732 837 LINE",
"705 847 OFFCURVE",
"690 850 OFFCURVE",
"670 850 CURVE SMOOTH",
"542 850 OFFCURVE",
"478 663 OFFCURVE",
"478 464 CURVE SMOOTH",
"478 364 LINE SMOOTH",
"478 162 OFFCURVE",
"446 58 OFFCURVE",
"302 58 CURVE SMOOTH",
"189 58 OFFCURVE",
"139 145 OFFCURVE",
"139 265 CURVE SMOOTH",
"139 368 OFFCURVE",
"165 440 OFFCURVE",
"238 477 CURVE",
"210 541 LINE",
"115 493 OFFCURVE",
"49 387 OFFCURVE",
"49 266 CURVE SMOOTH",
"49 105 OFFCURVE",
"162 -10 OFFCURVE",
"299 -10 CURVE SMOOTH"
);
}
);
width = 635;
}
);
unicode = 1994;
},
{
glyphname = uni1995;
lastChange = "2017-03-13 14:11:56 +0000";
layers = (
{
layerId = UUID0;
paths = (
{
closed = 1;
nodes = (
"388 -10 OFFCURVE",
"486 17 OFFCURVE",
"566 65 CURVE",
"623 18 OFFCURVE",
"691 -10 OFFCURVE",
"759 -10 CURVE SMOOTH",
"795 -10 OFFCURVE",
"820 -6 OFFCURVE",
"853 9 CURVE",
"824 68 LINE",
"805 61 OFFCURVE",
"780 58 OFFCURVE",
"762 58 CURVE SMOOTH",
"717 58 OFFCURVE",
"671 78 OFFCURVE",
"631 113 CURVE",
"702 176 OFFCURVE",
"748 262 OFFCURVE",
"748 366 CURVE SMOOTH",
"748 506 OFFCURVE",
"649 546 OFFCURVE",
"585 546 CURVE SMOOTH",
"479 546 OFFCURVE",
"425 457 OFFCURVE",
"425 365 CURVE SMOOTH",
"425 271 OFFCURVE",
"459 184 OFFCURVE",
"514 117 CURVE",
"448 78 OFFCURVE",
"367 58 OFFCURVE",
"288 58 CURVE SMOOTH",
"200 58 OFFCURVE",
"139 90 OFFCURVE",
"139 164 CURVE SMOOTH",
"139 208 OFFCURVE",
"166 257 OFFCURVE",
"266 257 CURVE SMOOTH",
"272 257 OFFCURVE",
"289 257 OFFCURVE",
"295 256 CURVE",
"295 315 LINE",
"290 315 LINE SMOOTH",
"235 315 OFFCURVE",
"139 318 OFFCURVE",
"139 408 CURVE SMOOTH",
"139 450 OFFCURVE",
"176 479 OFFCURVE",
"248 479 CURVE SMOOTH",
"280 479 OFFCURVE",
"328 468 OFFCURVE",
"355 449 CURVE",
"389 504 LINE",
"351 531 OFFCURVE",
"288 546 OFFCURVE",
"238 546 CURVE SMOOTH",
"113 546 OFFCURVE",
"49 477 OFFCURVE",
"49 412 CURVE SMOOTH",
"49 345 OFFCURVE",
"88 313 OFFCURVE",
"139 292 CURVE",
"81 267 OFFCURVE",
"49 219 OFFCURVE",
"49 163 CURVE SMOOTH",
"49 94 OFFCURVE",
"93 -10 OFFCURVE",
"289 -10 CURVE SMOOTH"
);
},
{
closed = 1;
nodes = (
"542 225 OFFCURVE",
"515 296 OFFCURVE",
"515 373 CURVE SMOOTH",
"515 446 OFFCURVE",
"538 479 OFFCURVE",
"585 479 CURVE SMOOTH",
"634 479 OFFCURVE",
"658 450 OFFCURVE",
"658 364 CURVE SMOOTH",
"658 283 OFFCURVE",
"628 218 OFFCURVE",
"581 169 CURVE"
);
}
);
width = 833;
}
);
unicode = 1995;
},
{
glyphname = uni1996;
lastChange = "2017-03-13 14:11:56 +0000";
layers = (
{
layerId = UUID0;
paths = (
{
closed = 1;
nodes = (
"748 -293 OFFCURVE",
"853 -275 OFFCURVE",
"936 -238 CURVE",
"907 -181 LINE",
"862 -204 OFFCURVE",
"743 -227 OFFCURVE",
"649 -227 CURVE SMOOTH",
"523 -227 OFFCURVE",
"505 -187 OFFCURVE",
"505 -162 CURVE SMOOTH",
"505 -111 OFFCURVE",
"588 -104 OFFCURVE",
"683 -101 CURVE",
"694 -84 LINE",
"682 -60 OFFCURVE",
"671 -34 OFFCURVE",
"665 -9 CURVE",
"770 -2 OFFCURVE",
"865 116 OFFCURVE",
"865 279 CURVE SMOOTH",
"865 444 OFFCURVE",
"777 546 OFFCURVE",
"666 546 CURVE SMOOTH",
"565 546 OFFCURVE",
"505 441 OFFCURVE",
"459 356 CURVE SMOOTH",
"361 175 LINE SMOOTH",
"323 105 OFFCURVE",
"293 58 OFFCURVE",
"249 58 CURVE SMOOTH",
"192 58 OFFCURVE",
"139 115 OFFCURVE",
"139 258 CURVE SMOOTH",
"139 392 OFFCURVE",
"183 479 OFFCURVE",
"261 479 CURVE SMOOTH",
"297 479 OFFCURVE",
"329 466 OFFCURVE",
"354 431 CURVE",
"403 476 LINE",
"372 518 OFFCURVE",
"323 546 OFFCURVE",
"259 546 CURVE SMOOTH",
"150 546 OFFCURVE",
"49 425 OFFCURVE",
"49 257 CURVE SMOOTH",
"49 92 OFFCURVE",
"137 -10 OFFCURVE",
"248 -10 CURVE SMOOTH",
"349 -10 OFFCURVE",
"409 95 OFFCURVE",
"455 180 CURVE SMOOTH",
"552 361 LINE SMOOTH",
"590 431 OFFCURVE",
"620 479 OFFCURVE",
"665 479 CURVE SMOOTH",
"722 479 OFFCURVE",
"775 421 OFFCURVE",
"775 278 CURVE SMOOTH",
"775 144 OFFCURVE",
"731 58 OFFCURVE",
"653 58 CURVE SMOOTH",
"616 58 OFFCURVE",
"584 70 OFFCURVE",
"560 105 CURVE",
"510 61 LINE",
"534 29 OFFCURVE",
"567 5 OFFCURVE",
"609 -4 CURVE",
"612 -19 OFFCURVE",
"617 -33 OFFCURVE",
"622 -43 CURVE",
"471 -50 OFFCURVE",
"420 -108 OFFCURVE",
"420 -167 CURVE SMOOTH",
"420 -226 OFFCURVE",
"477 -293 OFFCURVE",
"647 -293 CURVE SMOOTH"
);
}
);
width = 914;
}
);
unicode = 1996;
},
{
glyphname = uni1997;
lastChange = "2017-03-13 14:11:56 +0000";
layers = (
{
layerId = UUID0;
paths = (
{
closed = 1;
nodes = (
"737 -293 OFFCURVE",
"859 -63 OFFCURVE",
"859 271 CURVE SMOOTH",
"859 276 LINE SMOOTH",
"859 451 OFFCURVE",
"755 546 OFFCURVE",
"628 546 CURVE SMOOTH",
"567 546 OFFCURVE",
"492 515 OFFCURVE",
"454 436 CURVE",
"416 515 OFFCURVE",
"340 546 OFFCURVE",
"280 546 CURVE SMOOTH",
"153 546 OFFCURVE",
"49 451 OFFCURVE",
"49 276 CURVE SMOOTH",
"49 78 OFFCURVE",
"165 -10 OFFCURVE",
"280 -10 CURVE SMOOTH",
"321 -10 OFFCURVE",
"359 -2 OFFCURVE",
"397 20 CURVE",
"357 77 LINE",
"333 63 OFFCURVE",
"307 58 OFFCURVE",
"284 58 CURVE SMOOTH",
"196 58 OFFCURVE",
"139 126 OFFCURVE",
"139 275 CURVE SMOOTH",
"139 404 OFFCURVE",
"192 479 OFFCURVE",
"283 479 CURVE SMOOTH",
"361 479 OFFCURVE",
"406 416 OFFCURVE",
"413 324 CURVE",
"496 324 LINE",
"502 416 OFFCURVE",
"547 479 OFFCURVE",
"625 479 CURVE SMOOTH",
"716 479 OFFCURVE",
"770 404 OFFCURVE",
"770 275 CURVE SMOOTH",
"770 126 OFFCURVE",
"712 58 OFFCURVE",
"624 58 CURVE SMOOTH",
"602 58 OFFCURVE",
"576 63 OFFCURVE",
"551 77 CURVE",
"511 20 LINE",
"549 -2 OFFCURVE",
"587 -10 OFFCURVE",
"628 -10 CURVE SMOOTH",
"669 -10 OFFCURVE",
"711 2 OFFCURVE",
"748 26 CURVE",
"715 -118 OFFCURVE",
"648 -234 OFFCURVE",
"463 -234 CURVE SMOOTH",
"341 -234 OFFCURVE",
"298 -206 OFFCURVE",
"298 -168 CURVE SMOOTH",
"298 -130 OFFCURVE",
"326 -100 OFFCURVE",
"435 -100 CURVE SMOOTH",
"508 -100 OFFCURVE",
"524 -115 OFFCURVE",
"524 -125 CURVE SMOOTH",
"524 -141 OFFCURVE",
"501 -150 OFFCURVE",
"467 -150 CURVE SMOOTH",
"453 -150 OFFCURVE",
"434 -148 OFFCURVE",
"417 -147 CURVE",
"431 -202 LINE",
"442 -203 OFFCURVE",
"454 -204 OFFCURVE",
"465 -204 CURVE SMOOTH",
"557 -204 OFFCURVE",
"597 -163 OFFCURVE",
"597 -124 CURVE SMOOTH",
"597 -78 OFFCURVE",
"541 -42 OFFCURVE",
"430 -42 CURVE SMOOTH",
"290 -42 OFFCURVE",
"225 -111 OFFCURVE",
"225 -169 CURVE SMOOTH",
"225 -232 OFFCURVE",
"280 -293 OFFCURVE",
"457 -293 CURVE SMOOTH"
);
}
);
width = 908;
}
);
unicode = 1997;
},
{
glyphname = uni1998;
lastChange = "2017-03-13 14:11:56 +0000";
layers = (
{
layerId = UUID0;
paths = (
{
closed = 1;
nodes = (
"387 -10 OFFCURVE",
"494 80 OFFCURVE",
"494 270 CURVE SMOOTH",
"494 300 OFFCURVE",
"492 328 OFFCURVE",
"487 353 CURVE",
"509 427 OFFCURVE",
"558 479 OFFCURVE",
"634 479 CURVE SMOOTH",
"727 479 OFFCURVE",
"790 407 OFFCURVE",
"790 273 CURVE SMOOTH",
"790 139 OFFCURVE",
"746 58 OFFCURVE",
"667 58 CURVE SMOOTH",
"631 58 OFFCURVE",
"599 70 OFFCURVE",
"575 105 CURVE",
"525 61 LINE",
"556 19 OFFCURVE",
"605 -10 OFFCURVE",
"669 -10 CURVE SMOOTH",
"797 -10 OFFCURVE",
"880 112 OFFCURVE",
"880 270 CURVE SMOOTH",
"880 468 OFFCURVE",
"764 546 OFFCURVE",
"645 546 CURVE SMOOTH",
"585 546 OFFCURVE",
"510 526 OFFCURVE",
"448 452 CURVE",
"404 518 OFFCURVE",
"333 546 OFFCURVE",
"253 546 CURVE SMOOTH",
"184 546 OFFCURVE",
"108 516 OFFCURVE",
"58 447 CURVE",
"122 410 LINE",
"155 460 OFFCURVE",
"208 479 OFFCURVE",
"249 479 CURVE SMOOTH",
"346 479 OFFCURVE",
"404 405 OFFCURVE",
"404 271 CURVE SMOOTH",
"404 142 OFFCURVE",
"345 58 OFFCURVE",
"254 58 CURVE SMOOTH",
"186 58 OFFCURVE",
"125 106 OFFCURVE",
"104 153 CURVE",
"39 116 LINE",
"98 19 OFFCURVE",
"183 -10 OFFCURVE",
"254 -10 CURVE SMOOTH"
);
}
);
width = 929;
}
);
unicode = 1998;
},
{
glyphname = uni1999;
lastChange = "2017-03-13 14:11:56 +0000";
layers = (
{
layerId = UUID0;
paths = (
{
closed = 1;
nodes = (
"445 -278 OFFCURVE",
"552 -184 OFFCURVE",
"552 -13 CURVE SMOOTH",
"552 39 OFFCURVE",
"542 83 OFFCURVE",
"526 120 CURVE",
"549 161 OFFCURVE",
"563 211 OFFCURVE",
"563 269 CURVE SMOOTH",
"563 410 OFFCURVE",
"481 498 OFFCURVE",
"401 541 CURVE",
"374 477 LINE",
"435 451 OFFCURVE",
"473 383 OFFCURVE",
"473 266 CURVE SMOOTH",
"473 241 OFFCURVE",
"470 218 OFFCURVE",
"466 198 CURVE",
"424 231 OFFCURVE",
"370 248 OFFCURVE",
"311 248 CURVE SMOOTH",
"255 248 OFFCURVE",
"195 229 OFFCURVE",
"147 185 CURVE",
"142 209 OFFCURVE",
"139 236 OFFCURVE",
"139 266 CURVE SMOOTH",
"139 383 OFFCURVE",
"177 451 OFFCURVE",
"238 477 CURVE",
"210 541 LINE",
"120 493 OFFCURVE",
"49 393 OFFCURVE",
"49 269 CURVE SMOOTH",
"49 100 OFFCURVE",
"165 -10 OFFCURVE",
"306 -10 CURVE SMOOTH",
"362 -10 OFFCURVE",
"415 8 OFFCURVE",
"458 41 CURVE",
"460 24 OFFCURVE",
"462 6 OFFCURVE",
"462 -12 CURVE SMOOTH",
"462 -126 OFFCURVE",
"402 -211 OFFCURVE",
"312 -211 CURVE SMOOTH",
"244 -211 OFFCURVE",
"183 -162 OFFCURVE",
"161 -116 CURVE",
"97 -152 LINE",
"156 -250 OFFCURVE",
"241 -278 OFFCURVE",
"312 -278 CURVE SMOOTH"
);
},
{
closed = 1;
nodes = (
"249 58 OFFCURVE",
"207 78 OFFCURVE",
"180 113 CURVE",
"213 163 OFFCURVE",
"266 181 OFFCURVE",
"306 181 CURVE SMOOTH",
"362 181 OFFCURVE",
"405 157 OFFCURVE",
"431 114 CURVE",
"402 76 OFFCURVE",
"360 58 OFFCURVE",
"306 58 CURVE SMOOTH"
);
}
);
width = 611;
}
);
unicode = 1999;
},
{
glyphname = uni199A;
lastChange = "2017-03-13 14:11:56 +0000";
layers = (
{
layerId = UUID0;
paths = (
{
closed = 1;
nodes = (
"476 -10 OFFCURVE",
"593 151 OFFCURVE",
"593 358 CURVE SMOOTH",
"593 458 OFFCURVE",
"556 646 OFFCURVE",
"504 715 CURVE",
"468 707 LINE",
"446 686 OFFCURVE",
"372 670 OFFCURVE",
"306 670 CURVE SMOOTH",
"219 670 OFFCURVE",
"162 690 OFFCURVE",
"162 728 CURVE SMOOTH",
"162 766 OFFCURVE",
"219 786 OFFCURVE",
"306 786 CURVE SMOOTH",
"360 786 OFFCURVE",
"406 779 OFFCURVE",
"433 764 CURVE",
"469 820 LINE",
"431 839 OFFCURVE",
"376 850 OFFCURVE",
"308 850 CURVE SMOOTH",
"159 850 OFFCURVE",
"74 796 OFFCURVE",
"74 727 CURVE SMOOTH",
"74 658 OFFCURVE",
"157 605 OFFCURVE",
"308 605 CURVE SMOOTH",
"380 605 OFFCURVE",
"438 617 OFFCURVE",
"476 638 CURVE",
"495 572 OFFCURVE",
"503 457 OFFCURVE",
"503 384 CURVE SMOOTH",
"503 155 OFFCURVE",
"428 58 OFFCURVE",
"285 58 CURVE SMOOTH",
"199 58 OFFCURVE",
"139 90 OFFCURVE",
"139 164 CURVE SMOOTH",
"139 208 OFFCURVE",
"166 257 OFFCURVE",
"266 257 CURVE SMOOTH",
"272 257 OFFCURVE",
"290 257 OFFCURVE",
"296 256 CURVE",
"296 315 LINE",
"235 317 OFFCURVE",
"139 318 OFFCURVE",
"139 408 CURVE SMOOTH",
"139 450 OFFCURVE",
"176 479 OFFCURVE",
"248 479 CURVE SMOOTH",
"280 479 OFFCURVE",
"328 468 OFFCURVE",
"355 449 CURVE",
"389 504 LINE",
"351 531 OFFCURVE",
"288 546 OFFCURVE",
"238 546 CURVE SMOOTH",
"113 546 OFFCURVE",
"49 476 OFFCURVE",
"49 408 CURVE SMOOTH",
"49 346 OFFCURVE",
"89 312 OFFCURVE",
"141 292 CURVE",
"82 265 OFFCURVE",
"49 220 OFFCURVE",
"49 163 CURVE SMOOTH",
"49 94 OFFCURVE",
"105 -10 OFFCURVE",
"286 -10 CURVE SMOOTH"
);
}
);
width = 642;
}
);
unicode = 199A;
},
{
glyphname = uni199C;
lastChange = "2017-03-13 14:11:56 +0000";
layers = (
{
layerId = UUID0;
paths = (
{
closed = 1;
nodes = (
"316 -293 OFFCURVE",
"354 -280 OFFCURVE",
"384 -252 CURVE",
"342 -206 LINE",
"321 -227 OFFCURVE",
"294 -234 OFFCURVE",
"266 -234 CURVE SMOOTH",
"238 -234 OFFCURVE",
"195 -218 OFFCURVE",
"195 -174 CURVE SMOOTH",
"195 -138 OFFCURVE",
"218 -107 OFFCURVE",
"278 -107 CURVE SMOOTH",
"395 -107 OFFCURVE",
"506 -293 OFFCURVE",
"651 -293 CURVE SMOOTH",
"762 -293 OFFCURVE",
"831 -180 OFFCURVE",
"831 -15 CURVE SMOOTH",
"831 21 OFFCURVE",
"825 59 OFFCURVE",
"816 95 CURVE",
"846 144 OFFCURVE",
"865 207 OFFCURVE",
"865 279 CURVE SMOOTH",
"865 444 OFFCURVE",
"777 546 OFFCURVE",
"666 546 CURVE SMOOTH",
"565 546 OFFCURVE",
"505 441 OFFCURVE",
"459 356 CURVE SMOOTH",
"361 175 LINE SMOOTH",
"323 105 OFFCURVE",
"293 58 OFFCURVE",
"249 58 CURVE SMOOTH",
"192 58 OFFCURVE",
"139 115 OFFCURVE",
"139 258 CURVE SMOOTH",
"139 392 OFFCURVE",
"183 479 OFFCURVE",
"261 479 CURVE SMOOTH",
"297 479 OFFCURVE",
"329 466 OFFCURVE",
"354 431 CURVE",
"403 476 LINE",
"372 518 OFFCURVE",
"323 546 OFFCURVE",
"259 546 CURVE SMOOTH",
"150 546 OFFCURVE",
"49 425 OFFCURVE",
"49 257 CURVE SMOOTH",
"49 92 OFFCURVE",
"137 -10 OFFCURVE",
"248 -10 CURVE SMOOTH",
"349 -10 OFFCURVE",
"409 95 OFFCURVE",
"455 180 CURVE SMOOTH",
"552 361 LINE SMOOTH",
"590 431 OFFCURVE",
"620 479 OFFCURVE",
"665 479 CURVE SMOOTH",
"722 479 OFFCURVE",
"775 421 OFFCURVE",
"775 278 CURVE SMOOTH",
"775 144 OFFCURVE",
"731 58 OFFCURVE",
"653 58 CURVE SMOOTH",
"616 58 OFFCURVE",
"584 70 OFFCURVE",
"560 105 CURVE",
"510 61 LINE",
"542 19 OFFCURVE",
"591 -10 OFFCURVE",
"654 -10 CURVE SMOOTH",
"687 -10 OFFCURVE",
"719 1 OFFCURVE",
"748 21 CURVE",
"750 6 OFFCURVE",
"752 -10 OFFCURVE",
"752 -25 CURVE SMOOTH",
"752 -183 OFFCURVE",
"707 -234 OFFCURVE",
"650 -234 CURVE SMOOTH",
"559 -234 OFFCURVE",
"438 -49 OFFCURVE",
"276 -49 CURVE SMOOTH",
"172 -49 OFFCURVE",
"122 -113 OFFCURVE",
"122 -177 CURVE SMOOTH",
"122 -234 OFFCURVE",
"163 -293 OFFCURVE",
"264 -293 CURVE SMOOTH"
);
}
);
width = 914;
}
);
unicode = 199C;
},
{
glyphname = uni199D;
lastChange = "2017-03-13 14:11:56 +0000";
layers = (
{
layerId = UUID0;
paths = (
{
closed = 1;
nodes = (
"321 -10 OFFCURVE",
"359 -2 OFFCURVE",
"397 20 CURVE",
"357 77 LINE",
"333 63 OFFCURVE",
"307 58 OFFCURVE",
"284 58 CURVE SMOOTH",
"196 58 OFFCURVE",
"139 126 OFFCURVE",
"139 275 CURVE SMOOTH",
"139 404 OFFCURVE",
"192 479 OFFCURVE",
"283 479 CURVE SMOOTH",
"361 479 OFFCURVE",
"406 416 OFFCURVE",
"413 324 CURVE",
"496 324 LINE",
"502 416 OFFCURVE",
"547 479 OFFCURVE",
"625 479 CURVE SMOOTH",
"716 479 OFFCURVE",
"770 404 OFFCURVE",
"770 275 CURVE SMOOTH",
"770 126 OFFCURVE",
"712 58 OFFCURVE",
"624 58 CURVE SMOOTH",
"602 58 OFFCURVE",
"576 63 OFFCURVE",
"551 77 CURVE",
"511 20 LINE",
"549 -2 OFFCURVE",
"587 -10 OFFCURVE",
"628 -10 CURVE SMOOTH",
"743 -10 OFFCURVE",
"859 78 OFFCURVE",
"859 276 CURVE SMOOTH",
"859 451 OFFCURVE",
"755 546 OFFCURVE",
"628 546 CURVE SMOOTH",
"567 546 OFFCURVE",
"492 515 OFFCURVE",
"454 436 CURVE",
"416 515 OFFCURVE",
"340 546 OFFCURVE",
"280 546 CURVE SMOOTH",
"229 546 OFFCURVE",
"181 530 OFFCURVE",
"143 500 CURVE",
"154 675 OFFCURVE",
"192 782 OFFCURVE",
"317 782 CURVE SMOOTH",
"357 782 OFFCURVE",
"417 763 OFFCURVE",
"444 713 CURVE",
"509 764 LINE",
"456 832 OFFCURVE",
"387 850 OFFCURVE",
"330 850 CURVE SMOOTH",
"164 850 OFFCURVE",
"49 689 OFFCURVE",
"49 414 CURVE SMOOTH",
"49 276 LINE SMOOTH",
"49 78 OFFCURVE",
"165 -10 OFFCURVE",
"280 -10 CURVE SMOOTH"
);
}
);
width = 908;
}
);
unicode = 199D;
},
{
glyphname = uni199E;
lastChange = "2017-03-13 14:11:56 +0000";
layers = (
{
layerId = UUID0;
paths = (
{
closed = 1;
nodes = (
"423 -10 OFFCURVE",
"505 110 OFFCURVE",
"505 269 CURVE SMOOTH",
"505 426 OFFCURVE",
"422 546 OFFCURVE",
"278 546 CURVE SMOOTH",
"134 546 OFFCURVE",
"49 426 OFFCURVE",
"49 269 CURVE SMOOTH",
"49 110 OFFCURVE",
"143 -10 OFFCURVE",
"275 -10 CURVE SMOOTH"
);
},
{
closed = 1;
nodes = (
"188 58 OFFCURVE",
"139 142 OFFCURVE",
"139 269 CURVE SMOOTH",
"139 396 OFFCURVE",
"187 479 OFFCURVE",
"276 479 CURVE SMOOTH",
"371 479 OFFCURVE",
"416 396 OFFCURVE",
"416 269 CURVE SMOOTH",
"416 142 OFFCURVE",
"371 58 OFFCURVE",
"277 58 CURVE SMOOTH"
);
}
);
width = 554;
}
);
unicode = 199E;
},
{
glyphname = uni199F;
lastChange = "2017-03-13 14:11:56 +0000";
layers = (
{
layerId = UUID0;
paths = (
{
closed = 1;
nodes = (
"323 -10 OFFCURVE",
"372 19 OFFCURVE",
"403 61 CURVE",
"354 105 LINE",
"329 70 OFFCURVE",
"297 58 OFFCURVE",
"261 58 CURVE SMOOTH",
"183 58 OFFCURVE",
"139 144 OFFCURVE",
"139 278 CURVE SMOOTH",
"139 421 OFFCURVE",
"192 479 OFFCURVE",
"249 479 CURVE SMOOTH",
"293 479 OFFCURVE",
"323 431 OFFCURVE",
"361 361 CURVE SMOOTH",
"459 180 LINE SMOOTH",
"505 95 OFFCURVE",
"565 -10 OFFCURVE",
"666 -10 CURVE SMOOTH",
"777 -10 OFFCURVE",
"865 92 OFFCURVE",
"865 257 CURVE SMOOTH",
"865 425 OFFCURVE",
"764 546 OFFCURVE",
"654 546 CURVE SMOOTH",
"591 546 OFFCURVE",
"542 518 OFFCURVE",
"510 476 CURVE",
"560 431 LINE",
"584 466 OFFCURVE",
"616 479 OFFCURVE",
"653 479 CURVE SMOOTH",
"731 479 OFFCURVE",
"775 392 OFFCURVE",
"775 258 CURVE SMOOTH",
"775 115 OFFCURVE",
"722 58 OFFCURVE",
"665 58 CURVE SMOOTH",
"620 58 OFFCURVE",
"590 105 OFFCURVE",
"552 175 CURVE SMOOTH",
"455 356 LINE SMOOTH",
"409 441 OFFCURVE",
"349 546 OFFCURVE",
"248 546 CURVE SMOOTH",
"137 546 OFFCURVE",
"49 444 OFFCURVE",
"49 279 CURVE SMOOTH",
"49 111 OFFCURVE",
"150 -10 OFFCURVE",
"259 -10 CURVE SMOOTH"
);
}
);
width = 914;
}
);
unicode = 199F;
},
{
glyphname = uni19A0;
lastChange = "2017-03-13 14:11:56 +0000";
layers = (
{
layerId = UUID0;
paths = (
{
closed = 1;
nodes = (
"349 -10 OFFCURVE",
"409 95 OFFCURVE",
"455 180 CURVE SMOOTH",
"552 361 LINE SMOOTH",
"590 431 OFFCURVE",
"620 479 OFFCURVE",
"665 479 CURVE SMOOTH",
"722 479 OFFCURVE",
"775 421 OFFCURVE",
"775 278 CURVE SMOOTH",
"775 144 OFFCURVE",
"731 58 OFFCURVE",
"653 58 CURVE SMOOTH",
"616 58 OFFCURVE",
"584 70 OFFCURVE",
"560 105 CURVE",
"510 61 LINE",
"542 19 OFFCURVE",
"591 -10 OFFCURVE",
"654 -10 CURVE SMOOTH",
"764 -10 OFFCURVE",
"865 111 OFFCURVE",
"865 279 CURVE SMOOTH",
"865 444 OFFCURVE",
"777 546 OFFCURVE",
"666 546 CURVE SMOOTH",
"565 546 OFFCURVE",
"505 441 OFFCURVE",
"459 356 CURVE SMOOTH",
"361 175 LINE SMOOTH",
"323 105 OFFCURVE",
"293 58 OFFCURVE",
"249 58 CURVE SMOOTH",
"192 58 OFFCURVE",
"139 115 OFFCURVE",
"139 258 CURVE SMOOTH",
"139 392 OFFCURVE",
"183 479 OFFCURVE",
"261 479 CURVE SMOOTH",
"297 479 OFFCURVE",
"329 466 OFFCURVE",
"354 431 CURVE",
"403 476 LINE",
"372 518 OFFCURVE",
"323 546 OFFCURVE",
"259 546 CURVE SMOOTH",
"150 546 OFFCURVE",
"49 425 OFFCURVE",
"49 257 CURVE SMOOTH",
"49 92 OFFCURVE",
"137 -10 OFFCURVE",
"248 -10 CURVE SMOOTH"
);
}
);
width = 914;
}
);
unicode = 19A0;
},
{
glyphname = uni19A1;
lastChange = "2017-03-13 14:11:56 +0000";
layers = (
{
layerId = UUID0;
paths = (
{
closed = 1;
nodes = (
"425 -278 OFFCURVE",
"485 -167 OFFCURVE",
"485 -85 CURVE SMOOTH",
"485 -29 OFFCURVE",
"453 14 OFFCURVE",
"395 42 CURVE",
"456 86 OFFCURVE",
"494 171 OFFCURVE",
"494 270 CURVE SMOOTH",
"494 468 OFFCURVE",
"378 546 OFFCURVE",
"259 546 CURVE SMOOTH",
"197 546 OFFCURVE",
"117 524 OFFCURVE",
"58 447 CURVE",
"122 410 LINE",
"150 452 OFFCURVE",
"194 479 OFFCURVE",
"249 479 CURVE SMOOTH",
"341 479 OFFCURVE",
"404 407 OFFCURVE",
"404 273 CURVE SMOOTH",
"404 139 OFFCURVE",
"345 67 OFFCURVE",
"267 67 CURVE SMOOTH",
"261 67 OFFCURVE",
"254 67 OFFCURVE",
"248 67 CURVE",
"248 0 LINE",
"253 0 OFFCURVE",
"258 0 OFFCURVE",
"263 0 CURVE SMOOTH",
"372 0 OFFCURVE",
"396 -43 OFFCURVE",
"396 -86 CURVE SMOOTH",
"396 -148 OFFCURVE",
"365 -211 OFFCURVE",
"237 -211 CURVE SMOOTH",
"162 -211 OFFCURVE",
"91 -168 OFFCURVE",
"53 -122 CURVE",
"-6 -166 LINE",
"58 -246 OFFCURVE",
"167 -278 OFFCURVE",
"237 -278 CURVE SMOOTH"
);
}
);
width = 543;
}
);
unicode = 19A1;
},
{
glyphname = uni19A2;
lastChange = "2017-03-13 14:11:56 +0000";
layers = (
{
layerId = UUID0;
paths = (
{
closed = 1;
nodes = (
"445 -10 OFFCURVE",
"563 100 OFFCURVE",
"563 269 CURVE SMOOTH",
"563 410 OFFCURVE",
"481 498 OFFCURVE",
"401 541 CURVE",
"374 477 LINE",
"435 451 OFFCURVE",
"473 383 OFFCURVE",
"473 266 CURVE SMOOTH",
"473 127 OFFCURVE",
"410 58 OFFCURVE",
"306 58 CURVE SMOOTH",
"190 58 OFFCURVE",
"139 139 OFFCURVE",
"139 266 CURVE SMOOTH",
"139 383 OFFCURVE",
"177 451 OFFCURVE",
"238 477 CURVE",
"210 541 LINE",
"120 493 OFFCURVE",
"49 393 OFFCURVE",
"49 269 CURVE SMOOTH",
"49 100 OFFCURVE",
"165 -10 OFFCURVE",
"306 -10 CURVE SMOOTH"
);
}
);
width = 611;
}
);
unicode = 19A2;
},
{
glyphname = uni19A3;
lastChange = "2017-03-13 14:11:56 +0000";
layers = (
{
layerId = UUID0;
paths = (
{
closed = 1;
nodes = (
"525 -278 OFFCURVE",
"629 -81 OFFCURVE",
"629 162 CURVE SMOOTH",
"629 388 OFFCURVE",
"482 546 OFFCURVE",
"295 546 CURVE SMOOTH",
"146 546 OFFCURVE",
"62 472 OFFCURVE",
"62 404 CURVE SMOOTH",
"62 271 OFFCURVE",
"294 244 OFFCURVE",
"294 134 CURVE SMOOTH",
"294 73 OFFCURVE",
"248 58 OFFCURVE",
"193 58 CURVE SMOOTH",
"151 58 OFFCURVE",
"110 79 OFFCURVE",
"89 105 CURVE",
"39 61 LINE",
"83 3 OFFCURVE",
"145 -10 OFFCURVE",
"197 -10 CURVE SMOOTH",
"313 -10 OFFCURVE",
"384 59 OFFCURVE",
"384 133 CURVE SMOOTH",
"384 274 OFFCURVE",
"151 311 OFFCURVE",
"151 404 CURVE SMOOTH",
"151 443 OFFCURVE",
"180 479 OFFCURVE",
"295 479 CURVE SMOOTH",
"422 479 OFFCURVE",
"540 395 OFFCURVE",
"540 166 CURVE SMOOTH",
"540 -17 OFFCURVE",
"516 -211 OFFCURVE",
"345 -211 CURVE SMOOTH",
"325 -211 OFFCURVE",
"294 -207 OFFCURVE",
"271 -194 CURVE",
"238 -259 LINE",
"271 -273 OFFCURVE",
"311 -278 OFFCURVE",
"338 -278 CURVE SMOOTH"
);
}
);
width = 678;
}
);
unicode = 19A3;
},
{
glyphname = uni19A7;
lastChange = "2017-03-13 14:11:56 +0000";
layers = (
{
layerId = UUID0;
paths = (
{
closed = 1;
nodes = (
"483 -10 LINE",
"477 42 OFFCURVE",
"464 83 OFFCURVE",
"448 117 CURVE",
"477 167 OFFCURVE",
"492 228 OFFCURVE",
"492 292 CURVE SMOOTH",
"492 452 OFFCURVE",
"390 546 OFFCURVE",
"246 546 CURVE SMOOTH",
"168 546 OFFCURVE",
"90 511 OFFCURVE",
"49 445 CURVE",
"110 410 LINE",
"143 460 OFFCURVE",
"197 479 OFFCURVE",
"237 479 CURVE SMOOTH",
"322 479 OFFCURVE",
"402 436 OFFCURVE",
"402 284 CURVE SMOOTH",
"402 249 OFFCURVE",
"399 219 OFFCURVE",
"393 192 CURVE",
"345 235 OFFCURVE",
"287 249 OFFCURVE",
"235 249 CURVE SMOOTH",
"132 249 OFFCURVE",
"59 183 OFFCURVE",
"59 115 CURVE SMOOTH",
"59 57 OFFCURVE",
"120 -10 OFFCURVE",
"242 -10 CURVE SMOOTH",
"303 -10 OFFCURVE",
"355 13 OFFCURVE",
"396 51 CURVE",
"402 29 OFFCURVE",
"406 4 OFFCURVE",
"408 -24 CURVE"
);
},
{
closed = 1;
nodes = (
"374 -293 OFFCURVE",
"457 -247 OFFCURVE",
"457 -178 CURVE SMOOTH",
"457 -109 OFFCURVE",
"374 -63 OFFCURVE",
"268 -63 CURVE SMOOTH",
"162 -63 OFFCURVE",
"78 -109 OFFCURVE",
"78 -178 CURVE SMOOTH",
"78 -247 OFFCURVE",
"162 -293 OFFCURVE",
"268 -293 CURVE SMOOTH"
);
},
{
closed = 1;
nodes = (
"189 -233 OFFCURVE",
"151 -210 OFFCURVE",
"151 -178 CURVE SMOOTH",
"151 -145 OFFCURVE",
"189 -122 OFFCURVE",
"266 -122 CURVE SMOOTH",
"343 -122 OFFCURVE",
"384 -145 OFFCURVE",
"384 -178 CURVE SMOOTH",
"384 -210 OFFCURVE",
"343 -233 OFFCURVE",
"266 -233 CURVE SMOOTH"
);
},
{
closed = 1;
nodes = (
"187 58 OFFCURVE",
"149 83 OFFCURVE",
"149 122 CURVE SMOOTH",
"149 157 OFFCURVE",
"191 181 OFFCURVE",
"247 181 CURVE SMOOTH",
"276 181 OFFCURVE",
"327 168 OFFCURVE",
"364 120 CURVE",
"336 78 OFFCURVE",
"296 58 OFFCURVE",
"247 58 CURVE SMOOTH"
);
}
);
width = 541;
}
);
unicode = 19A7;
},
{
glyphname = uni19AB;
lastChange = "2017-03-13 14:11:56 +0000";
layers = (
{
layerId = UUID0;
paths = (
{
closed = 1;
nodes = (
"591 -229 OFFCURVE",
"610 -180 OFFCURVE",
"610 -112 CURVE SMOOTH",
"610 -34 OFFCURVE",
"548 33 OFFCURVE",
"463 52 CURVE",
"512 102 OFFCURVE",
"549 172 OFFCURVE",
"549 268 CURVE SMOOTH",
"549 451 OFFCURVE",
"431 546 OFFCURVE",
"292 546 CURVE SMOOTH",
"234 546 OFFCURVE",
"181 524 OFFCURVE",
"140 489 CURVE",
"150 671 OFFCURVE",
"189 782 OFFCURVE",
"317 782 CURVE SMOOTH",
"357 782 OFFCURVE",
"417 763 OFFCURVE",
"444 713 CURVE",
"509 764 LINE",
"456 832 OFFCURVE",
"387 850 OFFCURVE",
"330 850 CURVE SMOOTH",
"164 850 OFFCURVE",
"49 689 OFFCURVE",
"49 414 CURVE SMOOTH",
"49 328 LINE SMOOTH",
"49 171 OFFCURVE",
"89 54 OFFCURVE",
"211 -5 CURVE",
"239 63 LINE",
"149 111 OFFCURVE",
"136 205 OFFCURVE",
"136 313 CURVE SMOOTH",
"136 354 LINE SMOOTH",
"136 420 OFFCURVE",
"202 479 OFFCURVE",
"292 479 CURVE SMOOTH",
"396 479 OFFCURVE",
"459 407 OFFCURVE",
"459 273 CURVE SMOOTH",
"459 156 OFFCURVE",
"421 92 OFFCURVE",
"360 66 CURVE",
"360 0 LINE",
"365 0 OFFCURVE",
"371 0 OFFCURVE",
"375 0 CURVE SMOOTH",
"484 0 OFFCURVE",
"528 -59 OFFCURVE",
"528 -125 CURVE SMOOTH",
"528 -162 OFFCURVE",
"520 -196 OFFCURVE",
"500 -227 CURVE",
"559 -274 LINE"
);
},
{
closed = 1;
nodes = (
"393 -293 OFFCURVE",
"472 -242 OFFCURVE",
"472 -178 CURVE SMOOTH",
"472 -114 OFFCURVE",
"393 -63 OFFCURVE",
"297 -63 CURVE SMOOTH",
"201 -63 OFFCURVE",
"122 -114 OFFCURVE",
"122 -178 CURVE SMOOTH",
"122 -242 OFFCURVE",
"201 -293 OFFCURVE",
"297 -293 CURVE SMOOTH"
);
},
{
closed = 1;
nodes = (
"238 -234 OFFCURVE",
"195 -209 OFFCURVE",
"195 -177 CURVE SMOOTH",
"195 -144 OFFCURVE",
"238 -122 OFFCURVE",
"295 -122 CURVE SMOOTH",
"353 -122 OFFCURVE",
"398 -144 OFFCURVE",
"398 -177 CURVE SMOOTH",
"398 -209 OFFCURVE",
"353 -234 OFFCURVE",
"295 -234 CURVE SMOOTH"
);
}
);
width = 598;
}
);
unicode = 19AB;
},
{
glyphname = uni19B0;
lastChange = "2017-03-13 14:11:56 +0000";
layers = (
{
layerId = UUID0;
paths = (
{
closed = 1;
nodes = (
"208 295 OFFCURVE",
"238 300 OFFCURVE",
"260 310 CURVE",
"230 367 LINE",
"215 360 OFFCURVE",
"201 358 OFFCURVE",
"185 358 CURVE SMOOTH",
"160 358 OFFCURVE",
"129 374 OFFCURVE",
"129 420 CURVE SMOOTH",
"129 463 OFFCURVE",
"158 483 OFFCURVE",
"192 483 CURVE SMOOTH",
"295 483 OFFCURVE",
"338 295 OFFCURVE",
"478 295 CURVE SMOOTH",
"576 295 OFFCURVE",
"617 379 OFFCURVE",
"617 422 CURVE SMOOTH",
"617 449 OFFCURVE",
"607 486 OFFCURVE",
"572 514 CURVE",
"519 469 LINE",
"535 456 OFFCURVE",
"543 429 OFFCURVE",
"543 415 CURVE SMOOTH",
"543 379 OFFCURVE",
"515 358 OFFCURVE",
"480 358 CURVE SMOOTH",
"388 358 OFFCURVE",
"348 546 OFFCURVE",
"197 546 CURVE SMOOTH",
"99 546 OFFCURVE",
"49 469 OFFCURVE",
"49 415 CURVE SMOOTH",
"49 340 OFFCURVE",
"115 295 OFFCURVE",
"176 295 CURVE SMOOTH"
);
},
{
closed = 1;
nodes = (
"208 -10 OFFCURVE",
"238 -5 OFFCURVE",
"260 5 CURVE",
"230 62 LINE",
"215 55 OFFCURVE",
"201 53 OFFCURVE",
"185 53 CURVE SMOOTH",
"160 53 OFFCURVE",
"129 69 OFFCURVE",
"129 115 CURVE SMOOTH",
"129 158 OFFCURVE",
"158 178 OFFCURVE",
"192 178 CURVE SMOOTH",
"295 178 OFFCURVE",
"338 -10 OFFCURVE",
"478 -10 CURVE SMOOTH",
"576 -10 OFFCURVE",
"617 74 OFFCURVE",
"617 117 CURVE SMOOTH",
"617 144 OFFCURVE",
"607 181 OFFCURVE",
"572 208 CURVE",
"519 164 LINE",
"535 150 OFFCURVE",
"543 124 OFFCURVE",
"543 110 CURVE SMOOTH",
"543 74 OFFCURVE",
"515 53 OFFCURVE",
"480 53 CURVE SMOOTH",
"388 53 OFFCURVE",
"348 241 OFFCURVE",
"197 241 CURVE SMOOTH",
"99 241 OFFCURVE",
"49 164 OFFCURVE",
"49 109 CURVE SMOOTH",
"49 35 OFFCURVE",
"115 -10 OFFCURVE",
"176 -10 CURVE SMOOTH"
);
}
);
width = 666;
}
);
unicode = 19B0;
},
{
glyphname = uni19B1;
lastChange = "2017-03-13 14:11:56 +0000";
layers = (
{
layerId = UUID0;
paths = (
{
closed = 1;
nodes = (
"372 -10 OFFCURVE",
"494 80 OFFCURVE",
"494 270 CURVE SMOOTH",
"494 468 OFFCURVE",
"382 546 OFFCURVE",
"253 546 CURVE SMOOTH",
"184 546 OFFCURVE",
"108 516 OFFCURVE",
"58 447 CURVE",
"122 410 LINE",
"155 460 OFFCURVE",
"208 479 OFFCURVE",
"249 479 CURVE SMOOTH",
"346 479 OFFCURVE",
"404 405 OFFCURVE",
"404 271 CURVE SMOOTH",
"404 142 OFFCURVE",
"345 58 OFFCURVE",
"254 58 CURVE SMOOTH",
"186 58 OFFCURVE",
"125 106 OFFCURVE",
"104 153 CURVE",
"39 116 LINE",
"98 19 OFFCURVE",
"178 -10 OFFCURVE",
"250 -10 CURVE SMOOTH"
);
}
);
width = 543;
}
);
unicode = 19B1;
},
{
glyphname = uni19B2;
lastChange = "2017-03-13 14:11:56 +0000";
layers = (
{
layerId = UUID0;
paths = (
{
closed = 1;
nodes = (
"471 -10 OFFCURVE",
"555 160 OFFCURVE",
"555 410 CURVE SMOOTH",
"555 672 OFFCURVE",
"483 850 OFFCURVE",
"301 850 CURVE SMOOTH",
"120 850 OFFCURVE",
"49 667 OFFCURVE",
"49 410 CURVE SMOOTH",
"49 164 OFFCURVE",
"131 -10 OFFCURVE",
"301 -10 CURVE SMOOTH"
);
},
{
closed = 1;
nodes = (
"193 58 OFFCURVE",
"148 165 OFFCURVE",
"140 345 CURVE",
"178 399 OFFCURVE",
"240 425 OFFCURVE",
"295 425 CURVE SMOOTH",
"357 425 OFFCURVE",
"425 401 OFFCURVE",
"463 340 CURVE",
"455 161 OFFCURVE",
"411 58 OFFCURVE",
"301 58 CURVE SMOOTH"
);
},
{
closed = 1;
nodes = (
"418 471 OFFCURVE",
"358 492 OFFCURVE",
"298 492 CURVE SMOOTH",
"241 492 OFFCURVE",
"183 472 OFFCURVE",
"139 438 CURVE",
"142 660 OFFCURVE",
"178 782 OFFCURVE",
"301 782 CURVE SMOOTH",
"418 782 OFFCURVE",
"462 664 OFFCURVE",
"465 435 CURVE"
);
}
);
width = 604;
}
);
unicode = 19B2;
},
{
glyphname = uni19B3;
lastChange = "2017-03-13 14:11:56 +0000";
layers = (
{
layerId = UUID0;
paths = (
{
closed = 1;
nodes = (
"347 -278 OFFCURVE",
"421 -260 OFFCURVE",
"475 -192 CURVE",
"425 -145 LINE",
"399 -177 OFFCURVE",
"349 -211 OFFCURVE",
"291 -211 CURVE SMOOTH",
"179 -211 OFFCURVE",
"144 -135 OFFCURVE",
"133 21 CURVE",
"171 -1 OFFCURVE",
"211 -10 OFFCURVE",
"250 -10 CURVE SMOOTH",
"372 -10 OFFCURVE",
"494 80 OFFCURVE",
"494 270 CURVE SMOOTH",
"494 468 OFFCURVE",
"382 546 OFFCURVE",
"253 546 CURVE SMOOTH",
"184 546 OFFCURVE",
"108 516 OFFCURVE",
"58 447 CURVE",
"122 410 LINE",
"155 460 OFFCURVE",
"208 479 OFFCURVE",
"249 479 CURVE SMOOTH",
"346 479 OFFCURVE",
"404 405 OFFCURVE",
"404 271 CURVE SMOOTH",
"404 142 OFFCURVE",
"345 58 OFFCURVE",
"254 58 CURVE SMOOTH",
"186 58 OFFCURVE",
"125 106 OFFCURVE",
"104 153 CURVE",
"39 116 LINE",
"39 109 LINE SMOOTH",
"39 -166 OFFCURVE",
"123 -278 OFFCURVE",
"289 -278 CURVE SMOOTH"
);
}
);
width = 543;
}
);
unicode = 19B3;
},
{
glyphname = uni19B4;
lastChange = "2017-03-13 14:11:56 +0000";
layers = (
{
layerId = UUID0;
paths = (
{
closed = 1;
nodes = (
"633 -279 OFFCURVE",
"648 -276 OFFCURVE",
"675 -267 CURVE",
"643 -205 LINE",
"624 -211 OFFCURVE",
"613 -212 OFFCURVE",
"606 -212 CURVE SMOOTH",
"530 -212 OFFCURVE",
"507 -123 OFFCURVE",
"507 132 CURVE SMOOTH",
"507 536 LINE",
"420 536 LINE",
"420 235 LINE SMOOTH",
"420 120 OFFCURVE",
"370 58 OFFCURVE",
"287 58 CURVE SMOOTH",
"191 58 OFFCURVE",
"177 127 OFFCURVE",
"177 203 CURVE SMOOTH",
"177 373 LINE SMOOTH",
"177 490 OFFCURVE",
"116 546 OFFCURVE",
"63 546 CURVE SMOOTH",
"38 546 OFFCURVE",
"23 543 OFFCURVE",
"10 539 CURVE",
"17 474 LINE",
"28 477 OFFCURVE",
"34 479 OFFCURVE",
"49 479 CURVE SMOOTH",
"76 479 OFFCURVE",
"90 459 OFFCURVE",
"90 427 CURVE SMOOTH",
"90 201 LINE SMOOTH",
"90 98 OFFCURVE",
"173 -10 OFFCURVE",
"283 -10 CURVE SMOOTH",
"345 -10 OFFCURVE",
"389 24 OFFCURVE",
"421 63 CURVE",
"430 -119 OFFCURVE",
"494 -279 OFFCURVE",
"613 -279 CURVE SMOOTH"
);
}
);
width = 597;
}
);
unicode = 19B4;
},
{
glyphname = uni19B5;
lastChange = "2017-03-13 14:11:56 +0000";
layers = (
{
layerId = UUID0;
paths = (
{
closed = 1;
nodes = (
"594 -10 OFFCURVE",
"628 -3 OFFCURVE",
"651 5 CURVE",
"622 64 LINE",
"606 60 OFFCURVE",
"598 58 OFFCURVE",
"579 58 CURVE SMOOTH",
"553 58 OFFCURVE",
"541 77 OFFCURVE",
"541 109 CURVE SMOOTH",
"541 167 OFFCURVE",
"564 210 OFFCURVE",
"564 284 CURVE SMOOTH",
"564 395 OFFCURVE",
"487 546 OFFCURVE",
"306 546 CURVE SMOOTH",
"159 546 OFFCURVE",
"49 426 OFFCURVE",
"49 263 CURVE SMOOTH",
"49 134 OFFCURVE",
"120 43 OFFCURVE",
"210 -5 CURVE",
"238 61 LINE",
"177 86 OFFCURVE",
"139 156 OFFCURVE",
"139 273 CURVE SMOOTH",
"139 396 OFFCURVE",
"190 479 OFFCURVE",
"306 479 CURVE SMOOTH",
"448 479 OFFCURVE",
"474 354 OFFCURVE",
"474 278 CURVE SMOOTH",
"474 175 OFFCURVE",
"458 147 OFFCURVE",
"458 103 CURVE SMOOTH",
"458 38 OFFCURVE",
"498 -10 OFFCURVE",
"576 -10 CURVE SMOOTH"
);
}
);
width = 703;
}
);
unicode = 19B5;
},
{
glyphname = uni19B6;
lastChange = "2017-03-13 14:11:56 +0000";
layers = (
{
layerId = UUID0;
paths = (
{
closed = 1;
nodes = (
"1195 -10 OFFCURVE",
"1229 -3 OFFCURVE",
"1251 5 CURVE",
"1222 64 LINE",
"1207 60 OFFCURVE",
"1198 58 OFFCURVE",
"1180 58 CURVE SMOOTH",
"1153 58 OFFCURVE",
"1141 77 OFFCURVE",
"1141 109 CURVE SMOOTH",
"1141 167 OFFCURVE",
"1165 210 OFFCURVE",
"1165 284 CURVE SMOOTH",
"1165 395 OFFCURVE",
"1087 546 OFFCURVE",
"906 546 CURVE SMOOTH",
"759 546 OFFCURVE",
"649 426 OFFCURVE",
"649 263 CURVE SMOOTH",
"649 134 OFFCURVE",
"721 43 OFFCURVE",
"811 -5 CURVE",
"838 61 LINE",
"777 86 OFFCURVE",
"739 156 OFFCURVE",
"739 273 CURVE SMOOTH",
"739 396 OFFCURVE",
"791 479 OFFCURVE",
"906 479 CURVE SMOOTH",
"1049 479 OFFCURVE",
"1075 354 OFFCURVE",
"1075 278 CURVE SMOOTH",
"1075 175 OFFCURVE",
"1059 147 OFFCURVE",
"1059 103 CURVE SMOOTH",
"1059 38 OFFCURVE",
"1098 -10 OFFCURVE",
"1177 -10 CURVE SMOOTH"
);
},
{
closed = 1;
nodes = (
"594 -10 OFFCURVE",
"628 -3 OFFCURVE",
"651 5 CURVE",
"622 64 LINE",
"606 60 OFFCURVE",
"598 58 OFFCURVE",
"579 58 CURVE SMOOTH",
"553 58 OFFCURVE",
"541 77 OFFCURVE",
"541 109 CURVE SMOOTH",
"541 167 OFFCURVE",
"564 210 OFFCURVE",
"564 284 CURVE SMOOTH",
"564 395 OFFCURVE",
"487 546 OFFCURVE",
"306 546 CURVE SMOOTH",
"159 546 OFFCURVE",
"49 426 OFFCURVE",
"49 263 CURVE SMOOTH",
"49 134 OFFCURVE",
"120 43 OFFCURVE",
"210 -5 CURVE",
"238 61 LINE",
"177 86 OFFCURVE",
"139 156 OFFCURVE",
"139 273 CURVE SMOOTH",
"139 396 OFFCURVE",
"190 479 OFFCURVE",
"306 479 CURVE SMOOTH",
"448 479 OFFCURVE",
"474 354 OFFCURVE",
"474 278 CURVE SMOOTH",
"474 175 OFFCURVE",
"458 147 OFFCURVE",
"458 103 CURVE SMOOTH",
"458 38 OFFCURVE",
"498 -10 OFFCURVE",
"576 -10 CURVE SMOOTH"
);
}
);
width = 1300;
}
);
unicode = 19B6;
},
{
glyphname = uni19B7;
lastChange = "2017-03-13 14:11:56 +0000";
layers = (
{
layerId = UUID0;
paths = (
{
closed = 1;
nodes = (
"356 -10 OFFCURVE",
"433 8 OFFCURVE",
"489 94 CURVE",
"429 132 LINE",
"398 83 OFFCURVE",
"355 58 OFFCURVE",
"289 58 CURVE SMOOTH",
"198 58 OFFCURVE",
"139 118 OFFCURVE",
"139 227 CURVE SMOOTH",
"139 335 OFFCURVE",
"201 383 OFFCURVE",
"303 384 CURVE",
"303 449 LINE",
"271 449 LINE SMOOTH",
"200 449 OFFCURVE",
"138 477 OFFCURVE",
"138 548 CURVE SMOOTH",
"138 594 OFFCURVE",
"165 647 OFFCURVE",
"271 647 CURVE SMOOTH",
"326 647 OFFCURVE",
"378 627 OFFCURVE",
"410 597 CURVE",
"462 652 LINE",
"420 690 OFFCURVE",
"354 715 OFFCURVE",
"279 715 CURVE SMOOTH",
"116 715 OFFCURVE",
"49 617 OFFCURVE",
"49 541 CURVE SMOOTH",
"49 483 OFFCURVE",
"85 429 OFFCURVE",
"152 404 CURVE",
"95 368 OFFCURVE",
"49 308 OFFCURVE",
"49 226 CURVE SMOOTH",
"49 85 OFFCURVE",
"150 -10 OFFCURVE",
"283 -10 CURVE SMOOTH"
);
}
);
width = 528;
}
);
unicode = 19B7;
},
{
glyphname = uni19B8;
lastChange = "2017-03-13 14:11:56 +0000";
layers = (
{
layerId = UUID0;
paths = (
{
closed = 1;
nodes = (
"103 -10 OFFCURVE",
"175 21 OFFCURVE",
"237 69 CURVE",
"292 21 OFFCURVE",
"358 -10 OFFCURVE",
"424 -10 CURVE SMOOTH",
"460 -10 OFFCURVE",
"505 0 OFFCURVE",
"539 21 CURVE",
"505 79 LINE",
"482 64 OFFCURVE",
"444 58 OFFCURVE",
"426 58 CURVE SMOOTH",
"379 58 OFFCURVE",
"331 79 OFFCURVE",
"290 116 CURVE",
"363 190 OFFCURVE",
"413 285 OFFCURVE",
"413 366 CURVE SMOOTH",
"413 498 OFFCURVE",
"323 546 OFFCURVE",
"250 546 CURVE SMOOTH",
"169 546 OFFCURVE",
"90 478 OFFCURVE",
"90 373 CURVE SMOOTH",
"90 273 OFFCURVE",
"133 188 OFFCURVE",
"188 121 CURVE",
"136 81 OFFCURVE",
"78 58 OFFCURVE",
"27 58 CURVE SMOOTH",
"19 58 OFFCURVE",
"8 59 OFFCURVE",
"-4 61 CURVE",
"-20 -5 LINE",
"0 -8 OFFCURVE",
"18 -10 OFFCURVE",
"33 -10 CURVE SMOOTH"
);
},
{
closed = 1;
nodes = (
"206 225 OFFCURVE",
"180 294 OFFCURVE",
"180 373 CURVE SMOOTH",
"180 446 OFFCURVE",
"203 479 OFFCURVE",
"250 479 CURVE SMOOTH",
"298 479 OFFCURVE",
"323 450 OFFCURVE",
"323 364 CURVE SMOOTH",
"323 292 OFFCURVE",
"290 225 OFFCURVE",
"242 171 CURVE"
);
}
);
width = 519;
}
);
unicode = 19B8;
},
{
glyphname = uni19B9;
lastChange = "2017-03-13 14:11:56 +0000";
layers = (
{
layerId = UUID0;
paths = (
{
closed = 1;
nodes = (
"471 -10 OFFCURVE",
"555 160 OFFCURVE",
"555 410 CURVE SMOOTH",
"555 672 OFFCURVE",
"483 850 OFFCURVE",
"301 850 CURVE SMOOTH",
"120 850 OFFCURVE",
"49 667 OFFCURVE",
"49 410 CURVE SMOOTH",
"49 164 OFFCURVE",
"131 -10 OFFCURVE",
"301 -10 CURVE SMOOTH"
);
},
{
closed = 1;
nodes = (
"193 58 OFFCURVE",
"148 165 OFFCURVE",
"140 345 CURVE",
"178 399 OFFCURVE",
"240 425 OFFCURVE",
"295 425 CURVE SMOOTH",
"357 425 OFFCURVE",
"425 401 OFFCURVE",
"463 340 CURVE",
"455 161 OFFCURVE",
"411 58 OFFCURVE",
"301 58 CURVE SMOOTH"
);
},
{
closed = 1;
nodes = (
"141 634 OFFCURVE",
"170 752 OFFCURVE",
"261 777 CURVE",
"261 489 LINE",
"216 483 OFFCURVE",
"173 465 OFFCURVE",
"139 438 CURVE"
);
},
{
closed = 1;
nodes = (
"430 462 OFFCURVE",
"387 480 OFFCURVE",
"343 488 CURVE",
"343 776 LINE",
"429 750 OFFCURVE",
"462 635 OFFCURVE",
"465 435 CURVE"
);
}
);
width = 604;
}
);
unicode = 19B9;
},
{
glyphname = uni19BA;
lastChange = "2017-03-13 14:11:56 +0000";
layers = (
{
layerId = UUID0;
paths = (
{
closed = 1;
nodes = (
"365 -10 OFFCURVE",
"445 19 OFFCURVE",
"504 116 CURVE",
"439 153 LINE",
"418 106 OFFCURVE",
"357 58 OFFCURVE",
"289 58 CURVE SMOOTH",
"198 58 OFFCURVE",
"139 142 OFFCURVE",
"139 271 CURVE SMOOTH",
"139 405 OFFCURVE",
"197 479 OFFCURVE",
"294 479 CURVE SMOOTH",
"334 479 OFFCURVE",
"388 460 OFFCURVE",
"421 410 CURVE",
"495 447 LINE",
"495 467 LINE SMOOTH",
"495 665 OFFCURVE",
"439 850 OFFCURVE",
"288 850 CURVE SMOOTH",
"261 850 OFFCURVE",
"228 842 OFFCURVE",
"190 825 CURVE",
"229 765 LINE",
"253 777 OFFCURVE",
"280 782 OFFCURVE",
"300 782 CURVE SMOOTH",
"386 782 OFFCURVE",
"403 705 OFFCURVE",
"407 516 CURVE",
"369 536 OFFCURVE",
"329 546 OFFCURVE",
"290 546 CURVE SMOOTH",
"161 546 OFFCURVE",
"49 468 OFFCURVE",
"49 270 CURVE SMOOTH",
"49 80 OFFCURVE",
"171 -10 OFFCURVE",
"293 -10 CURVE SMOOTH"
);
}
);
width = 563;
}
);
unicode = 19BA;
},
{
glyphname = uni19BB;
lastChange = "2017-03-13 14:11:56 +0000";
layers = (
{
layerId = UUID0;
paths = (
{
closed = 1;
nodes = (
"679 -278 OFFCURVE",
"739 -166 OFFCURVE",
"739 -35 CURVE SMOOTH",
"739 536 LINE",
"652 536 LINE",
"652 -36 LINE SMOOTH",
"652 -137 OFFCURVE",
"643 -211 OFFCURVE",
"573 -211 CURVE SMOOTH",
"503 -211 OFFCURVE",
"494 -137 OFFCURVE",
"494 -36 CURVE SMOOTH",
"494 270 LINE SMOOTH",
"494 468 OFFCURVE",
"382 546 OFFCURVE",
"253 546 CURVE SMOOTH",
"184 546 OFFCURVE",
"108 516 OFFCURVE",
"58 447 CURVE",
"122 410 LINE",
"155 460 OFFCURVE",
"208 479 OFFCURVE",
"249 479 CURVE SMOOTH",
"346 479 OFFCURVE",
"404 405 OFFCURVE",
"404 271 CURVE SMOOTH",
"404 142 OFFCURVE",
"345 58 OFFCURVE",
"254 58 CURVE SMOOTH",
"186 58 OFFCURVE",
"125 106 OFFCURVE",
"104 153 CURVE",
"39 116 LINE",
"98 19 OFFCURVE",
"178 -10 OFFCURVE",
"250 -10 CURVE SMOOTH",
"306 -10 OFFCURVE",
"363 9 OFFCURVE",
"407 49 CURVE",
"407 -41 LINE SMOOTH",
"407 -144 OFFCURVE",
"456 -278 OFFCURVE",
"573 -278 CURVE SMOOTH"
);
}
);
width = 807;
}
);
unicode = 19BB;
},
{
glyphname = uni19BC;
lastChange = "2017-03-13 14:11:56 +0000";
layers = (
{
layerId = UUID0;
paths = (
{
closed = 1;
nodes = (
"692 -278 OFFCURVE",
"752 -166 OFFCURVE",
"752 -35 CURVE SMOOTH",
"752 536 LINE",
"665 536 LINE",
"665 -36 LINE SMOOTH",
"665 -137 OFFCURVE",
"656 -211 OFFCURVE",
"586 -211 CURVE SMOOTH",
"517 -211 OFFCURVE",
"507 -137 OFFCURVE",
"507 -36 CURVE SMOOTH",
"507 536 LINE",
"420 536 LINE",
"420 227 LINE SMOOTH",
"420 117 OFFCURVE",
"368 58 OFFCURVE",
"287 58 CURVE SMOOTH",
"191 58 OFFCURVE",
"177 127 OFFCURVE",
"177 203 CURVE SMOOTH",
"177 373 LINE SMOOTH",
"177 490 OFFCURVE",
"116 546 OFFCURVE",
"63 546 CURVE SMOOTH",
"38 546 OFFCURVE",
"23 543 OFFCURVE",
"10 539 CURVE",
"17 474 LINE",
"28 477 OFFCURVE",
"34 479 OFFCURVE",
"49 479 CURVE SMOOTH",
"76 479 OFFCURVE",
"90 459 OFFCURVE",
"90 427 CURVE SMOOTH",
"90 201 LINE SMOOTH",
"90 98 OFFCURVE",
"173 -10 OFFCURVE",
"283 -10 CURVE SMOOTH",
"345 -10 OFFCURVE",
"388 23 OFFCURVE",
"420 62 CURVE",
"420 -41 LINE SMOOTH",
"420 -144 OFFCURVE",
"469 -278 OFFCURVE",
"586 -278 CURVE SMOOTH"
);
}
);
width = 820;
}
);
unicode = 19BC;
},
{
glyphname = uni19BD;
lastChange = "2017-03-13 14:11:56 +0000";
layers = (
{
layerId = UUID0;
paths = (
{
closed = 1;
nodes = (
"690 -278 OFFCURVE",
"750 -166 OFFCURVE",
"750 -35 CURVE SMOOTH",
"750 536 LINE",
"663 536 LINE",
"663 -36 LINE SMOOTH",
"663 -137 OFFCURVE",
"654 -211 OFFCURVE",
"584 -211 CURVE SMOOTH",
"515 -211 OFFCURVE",
"505 -137 OFFCURVE",
"505 -36 CURVE SMOOTH",
"505 269 LINE",
"505 426 OFFCURVE",
"422 546 OFFCURVE",
"278 546 CURVE SMOOTH",
"134 546 OFFCURVE",
"49 426 OFFCURVE",
"49 269 CURVE SMOOTH",
"49 110 OFFCURVE",
"143 -10 OFFCURVE",
"275 -10 CURVE SMOOTH",
"333 -10 OFFCURVE",
"381 9 OFFCURVE",
"418 41 CURVE",
"418 -41 LINE SMOOTH",
"418 -144 OFFCURVE",
"467 -278 OFFCURVE",
"584 -278 CURVE SMOOTH"
);
},
{
closed = 1;
nodes = (
"188 58 OFFCURVE",
"139 142 OFFCURVE",
"139 269 CURVE SMOOTH",
"139 396 OFFCURVE",
"187 479 OFFCURVE",
"276 479 CURVE SMOOTH",
"371 479 OFFCURVE",
"416 396 OFFCURVE",
"416 269 CURVE SMOOTH",
"416 142 OFFCURVE",
"371 58 OFFCURVE",
"277 58 CURVE SMOOTH"
);
}
);
width = 818;
}
);
unicode = 19BD;
},
{
glyphname = uni19BE;
lastChange = "2017-03-13 14:11:56 +0000";
layers = (
{
layerId = UUID0;
paths = (
{
closed = 1;
nodes = (
"103 -10 OFFCURVE",
"175 21 OFFCURVE",
"237 69 CURVE",
"292 21 OFFCURVE",
"358 -10 OFFCURVE",
"424 -10 CURVE SMOOTH",
"588 -10 OFFCURVE",
"653 198 OFFCURVE",
"653 401 CURVE SMOOTH",
"653 422 LINE SMOOTH",
"654 679 OFFCURVE",
"669 782 OFFCURVE",
"744 782 CURVE SMOOTH",
"759 782 OFFCURVE",
"770 781 OFFCURVE",
"789 775 CURVE",
"821 837 LINE",
"794 847 OFFCURVE",
"779 850 OFFCURVE",
"759 850 CURVE SMOOTH",
"631 850 OFFCURVE",
"566 663 OFFCURVE",
"566 464 CURVE SMOOTH",
"566 364 LINE SMOOTH",
"566 176 OFFCURVE",
"532 59 OFFCURVE",
"426 59 CURVE SMOOTH",
"360 59 OFFCURVE",
"323 85 OFFCURVE",
"290 116 CURVE",
"363 190 OFFCURVE",
"413 285 OFFCURVE",
"413 366 CURVE SMOOTH",
"413 498 OFFCURVE",
"313 546 OFFCURVE",
"250 546 CURVE SMOOTH",
"179 546 OFFCURVE",
"90 478 OFFCURVE",
"90 373 CURVE SMOOTH",
"90 273 OFFCURVE",
"133 188 OFFCURVE",
"188 121 CURVE",
"136 81 OFFCURVE",
"78 58 OFFCURVE",
"27 58 CURVE SMOOTH",
"19 58 OFFCURVE",
"8 59 OFFCURVE",
"-4 61 CURVE",
"-20 -5 LINE",
"0 -8 OFFCURVE",
"18 -10 OFFCURVE",
"33 -10 CURVE SMOOTH"
);
},
{
closed = 1;
nodes = (
"206 225 OFFCURVE",
"180 294 OFFCURVE",
"180 373 CURVE SMOOTH",
"180 446 OFFCURVE",
"203 479 OFFCURVE",
"250 479 CURVE SMOOTH",
"298 479 OFFCURVE",
"323 450 OFFCURVE",
"323 364 CURVE SMOOTH",
"323 292 OFFCURVE",
"290 225 OFFCURVE",
"242 171 CURVE"
);
}
);
width = 724;
}
);
unicode = 19BE;
},
{
glyphname = uni19BF;
lastChange = "2017-03-13 14:11:56 +0000";
layers = (
{
layerId = UUID0;
paths = (
{
closed = 1;
nodes = (
"751 -278 OFFCURVE",
"799 -144 OFFCURVE",
"799 -41 CURVE SMOOTH",
"799 536 LINE",
"712 536 LINE",
"712 -36 LINE SMOOTH",
"712 -137 OFFCURVE",
"703 -211 OFFCURVE",
"633 -211 CURVE SMOOTH",
"563 -211 OFFCURVE",
"555 -137 OFFCURVE",
"555 -36 CURVE SMOOTH",
"555 410 LINE SMOOTH",
"555 672 OFFCURVE",
"483 850 OFFCURVE",
"301 850 CURVE SMOOTH",
"120 850 OFFCURVE",
"49 667 OFFCURVE",
"49 410 CURVE SMOOTH",
"49 164 OFFCURVE",
"131 -10 OFFCURVE",
"301 -10 CURVE SMOOTH",
"371 -10 OFFCURVE",
"427 30 OFFCURVE",
"468 91 CURVE",
"468 -35 LINE SMOOTH",
"468 -169 OFFCURVE",
"526 -278 OFFCURVE",
"633 -278 CURVE SMOOTH"
);
},
{
closed = 1;
nodes = (
"193 58 OFFCURVE",
"148 165 OFFCURVE",
"140 345 CURVE",
"178 399 OFFCURVE",
"240 425 OFFCURVE",
"295 425 CURVE SMOOTH",
"357 425 OFFCURVE",
"425 401 OFFCURVE",
"463 340 CURVE",
"455 161 OFFCURVE",
"411 58 OFFCURVE",
"301 58 CURVE SMOOTH"
);
},
{
closed = 1;
nodes = (
"141 634 OFFCURVE",
"170 752 OFFCURVE",
"261 777 CURVE",
"261 489 LINE",
"216 483 OFFCURVE",
"173 465 OFFCURVE",
"139 438 CURVE"
);
},
{
closed = 1;
nodes = (
"430 462 OFFCURVE",
"387 480 OFFCURVE",
"343 488 CURVE",
"343 776 LINE",
"429 750 OFFCURVE",
"462 635 OFFCURVE",
"465 435 CURVE"
);
}
);
width = 868;
}
);
unicode = 19BF;
},
{
glyphname = uni19C0;
lastChange = "2017-03-13 14:11:56 +0000";
layers = (
{
layerId = UUID0;
paths = (
{
closed = 1;
nodes = (
"751 -278 OFFCURVE",
"799 -144 OFFCURVE",
"799 -41 CURVE SMOOTH",
"799 536 LINE",
"712 536 LINE",
"712 -36 LINE SMOOTH",
"712 -137 OFFCURVE",
"703 -211 OFFCURVE",
"633 -211 CURVE SMOOTH",
"563 -211 OFFCURVE",
"555 -137 OFFCURVE",
"555 -36 CURVE SMOOTH",
"555 410 LINE SMOOTH",
"555 672 OFFCURVE",
"483 850 OFFCURVE",
"301 850 CURVE SMOOTH",
"120 850 OFFCURVE",
"49 667 OFFCURVE",
"49 410 CURVE SMOOTH",
"49 164 OFFCURVE",
"131 -10 OFFCURVE",
"301 -10 CURVE SMOOTH",
"371 -10 OFFCURVE",
"427 31 OFFCURVE",
"468 91 CURVE",
"468 -35 LINE SMOOTH",
"468 -169 OFFCURVE",
"526 -278 OFFCURVE",
"633 -278 CURVE SMOOTH"
);
},
{
closed = 1;
nodes = (
"193 58 OFFCURVE",
"148 165 OFFCURVE",
"140 345 CURVE",
"178 399 OFFCURVE",
"240 425 OFFCURVE",
"295 425 CURVE SMOOTH",
"357 425 OFFCURVE",
"425 401 OFFCURVE",
"463 340 CURVE",
"455 161 OFFCURVE",
"411 58 OFFCURVE",
"301 58 CURVE SMOOTH"
);
},
{
closed = 1;
nodes = (
"418 471 OFFCURVE",
"358 492 OFFCURVE",
"298 492 CURVE SMOOTH",
"241 492 OFFCURVE",
"183 472 OFFCURVE",
"139 438 CURVE",
"142 660 OFFCURVE",
"178 782 OFFCURVE",
"301 782 CURVE SMOOTH",
"418 782 OFFCURVE",
"462 664 OFFCURVE",
"465 435 CURVE"
);
}
);
width = 868;
}
);
unicode = 19C0;
},
{
glyphname = uni19C2;
lastChange = "2017-03-13 14:11:56 +0000";
layers = (
{
layerId = UUID0;
paths = (
{
closed = 1;
nodes = (
"487 -293 OFFCURVE",
"598 -39 OFFCURVE",
"598 162 CURVE SMOOTH",
"598 390 OFFCURVE",
"499 546 OFFCURVE",
"314 546 CURVE SMOOTH",
"181 546 OFFCURVE",
"49 440 OFFCURVE",
"49 241 CURVE SMOOTH",
"49 59 OFFCURVE",
"102 -10 OFFCURVE",
"173 -10 CURVE SMOOTH",
"274 -10 OFFCURVE",
"270 121 OFFCURVE",
"305 121 CURVE SMOOTH",
"319 121 OFFCURVE",
"333 96 OFFCURVE",
"333 42 CURVE SMOOTH",
"333 29 OFFCURVE",
"333 15 OFFCURVE",
"332 0 CURVE",
"405 33 LINE",
"406 45 OFFCURVE",
"406 56 OFFCURVE",
"406 67 CURVE SMOOTH",
"406 142 OFFCURVE",
"374 188 OFFCURVE",
"315 188 CURVE SMOOTH",
"238 188 OFFCURVE",
"223 58 OFFCURVE",
"180 58 CURVE SMOOTH",
"153 58 OFFCURVE",
"139 106 OFFCURVE",
"139 252 CURVE SMOOTH",
"139 385 OFFCURVE",
"198 479 OFFCURVE",
"312 479 CURVE SMOOTH",
"427 479 OFFCURVE",
"508 395 OFFCURVE",
"508 166 CURVE SMOOTH",
"508 52 OFFCURVE",
"498 -67 OFFCURVE",
"452 -167 CURVE",
"444 -119 OFFCURVE",
"399 -83 OFFCURVE",
"348 -83 CURVE SMOOTH",
"276 -83 OFFCURVE",
"231 -128 OFFCURVE",
"231 -184 CURVE SMOOTH",
"231 -245 OFFCURVE",
"273 -293 OFFCURVE",
"345 -293 CURVE SMOOTH"
);
},
{
closed = 1;
nodes = (
"319 -234 OFFCURVE",
"298 -215 OFFCURVE",
"298 -187 CURVE SMOOTH",
"298 -158 OFFCURVE",
"319 -138 OFFCURVE",
"346 -138 CURVE SMOOTH",
"371 -138 OFFCURVE",
"392 -158 OFFCURVE",
"392 -187 CURVE SMOOTH",
"392 -215 OFFCURVE",
"371 -234 OFFCURVE",
"346 -234 CURVE SMOOTH"
);
}
);
width = 647;
}
);
unicode = 19C2;
},
{
glyphname = uni19C3;
lastChange = "2017-03-13 14:11:56 +0000";
layers = (
{
layerId = UUID0;
paths = (
{
closed = 1;
nodes = (
"388 -293 OFFCURVE",
"536 -213 OFFCURVE",
"536 -81 CURVE SMOOTH",
"536 11 OFFCURVE",
"448 77 OFFCURVE",
"335 77 CURVE SMOOTH",
"278 77 OFFCURVE",
"251 63 OFFCURVE",
"209 63 CURVE SMOOTH",
"165 63 OFFCURVE",
"139 152 OFFCURVE",
"139 266 CURVE SMOOTH",
"139 404 OFFCURVE",
"183 479 OFFCURVE",
"297 479 CURVE SMOOTH",
"352 479 OFFCURVE",
"393 454 OFFCURVE",
"420 410 CURVE",
"485 460 LINE",
"436 516 OFFCURVE",
"377 546 OFFCURVE",
"297 546 CURVE SMOOTH",
"153 546 OFFCURVE",
"49 412 OFFCURVE",
"49 260 CURVE SMOOTH",
"49 87 OFFCURVE",
"124 -5 OFFCURVE",
"195 -5 CURVE SMOOTH",
"253 -5 OFFCURVE",
"288 10 OFFCURVE",
"327 10 CURVE SMOOTH",
"410 10 OFFCURVE",
"443 -38 OFFCURVE",
"443 -91 CURVE SMOOTH",
"443 -157 OFFCURVE",
"410 -203 OFFCURVE",
"358 -225 CURVE",
"360 -215 OFFCURVE",
"361 -200 OFFCURVE",
"361 -191 CURVE SMOOTH",
"361 -120 OFFCURVE",
"309 -83 OFFCURVE",
"252 -83 CURVE SMOOTH",
"186 -83 OFFCURVE",
"139 -127 OFFCURVE",
"139 -187 CURVE SMOOTH",
"139 -258 OFFCURVE",
"197 -293 OFFCURVE",
"282 -293 CURVE SMOOTH"
);
},
{
closed = 1;
nodes = (
"227 -234 OFFCURVE",
"206 -215 OFFCURVE",
"206 -187 CURVE SMOOTH",
"206 -158 OFFCURVE",
"227 -138 OFFCURVE",
"253 -138 CURVE SMOOTH",
"278 -138 OFFCURVE",
"299 -158 OFFCURVE",
"299 -187 CURVE SMOOTH",
"299 -215 OFFCURVE",
"278 -234 OFFCURVE",
"253 -234 CURVE SMOOTH"
);
}
);
width = 584;
}
);
unicode = 19C3;
},
{
glyphname = uni19C4;
lastChange = "2017-03-13 14:11:56 +0000";
layers = (
{
layerId = UUID0;
paths = (
{
closed = 1;
nodes = (
"417 -293 OFFCURVE",
"552 -202 OFFCURVE",
"552 -10 CURVE SMOOTH",
"552 35 OFFCURVE",
"542 76 OFFCURVE",
"525 112 CURVE",
"549 154 OFFCURVE",
"563 206 OFFCURVE",
"563 269 CURVE SMOOTH",
"563 410 OFFCURVE",
"481 498 OFFCURVE",
"401 541 CURVE",
"374 473 LINE",
"435 447 OFFCURVE",
"473 380 OFFCURVE",
"473 263 CURVE SMOOTH",
"473 236 OFFCURVE",
"470 212 OFFCURVE",
"465 190 CURVE",
"424 227 OFFCURVE",
"370 248 OFFCURVE",
"311 248 CURVE SMOOTH",
"255 248 OFFCURVE",
"195 229 OFFCURVE",
"147 185 CURVE",
"142 208 OFFCURVE",
"139 234 OFFCURVE",
"139 263 CURVE SMOOTH",
"139 380 OFFCURVE",
"177 447 OFFCURVE",
"238 473 CURVE",
"210 541 LINE",
"120 493 OFFCURVE",
"49 397 OFFCURVE",
"49 269 CURVE SMOOTH",
"49 85 OFFCURVE",
"165 -10 OFFCURVE",
"306 -10 CURVE SMOOTH",
"362 -10 OFFCURVE",
"415 6 OFFCURVE",
"458 37 CURVE",
"460 21 OFFCURVE",
"462 5 OFFCURVE",
"462 -12 CURVE SMOOTH",
"462 -91 OFFCURVE",
"435 -194 OFFCURVE",
"373 -225 CURVE",
"375 -215 OFFCURVE",
"376 -200 OFFCURVE",
"376 -191 CURVE SMOOTH",
"376 -119 OFFCURVE",
"321 -83 OFFCURVE",
"268 -83 CURVE SMOOTH",
"201 -83 OFFCURVE",
"154 -127 OFFCURVE",
"154 -187 CURVE SMOOTH",
"154 -258 OFFCURVE",
"211 -293 OFFCURVE",
"296 -293 CURVE SMOOTH"
);
},
{
closed = 1;
nodes = (
"242 -234 OFFCURVE",
"221 -215 OFFCURVE",
"221 -187 CURVE SMOOTH",
"221 -158 OFFCURVE",
"242 -138 OFFCURVE",
"268 -138 CURVE SMOOTH",
"293 -138 OFFCURVE",
"314 -158 OFFCURVE",
"314 -187 CURVE SMOOTH",
"314 -215 OFFCURVE",
"293 -234 OFFCURVE",
"268 -234 CURVE SMOOTH"
);
},
{
closed = 1;
nodes = (
"249 58 OFFCURVE",
"207 78 OFFCURVE",
"180 113 CURVE",
"213 163 OFFCURVE",
"266 181 OFFCURVE",
"306 181 CURVE SMOOTH",
"362 181 OFFCURVE",
"405 157 OFFCURVE",
"431 114 CURVE",
"402 77 OFFCURVE",
"360 58 OFFCURVE",
"306 58 CURVE SMOOTH"
);
}
);
width = 611;
}
);
unicode = 19C4;
},
{
glyphname = uni19C6;
lastChange = "2017-03-13 14:11:56 +0000";
layers = (
{
layerId = UUID0;
paths = (
{
closed = 1;
nodes = (
"348 -293 OFFCURVE",
"485 -214 OFFCURVE",
"485 -79 CURVE SMOOTH",
"485 -23 OFFCURVE",
"448 27 OFFCURVE",
"395 46 CURVE",
"456 91 OFFCURVE",
"494 171 OFFCURVE",
"494 270 CURVE SMOOTH",
"494 468 OFFCURVE",
"378 546 OFFCURVE",
"259 546 CURVE SMOOTH",
"197 546 OFFCURVE",
"117 524 OFFCURVE",
"58 447 CURVE",
"122 410 LINE",
"150 452 OFFCURVE",
"194 479 OFFCURVE",
"249 479 CURVE SMOOTH",
"341 479 OFFCURVE",
"404 407 OFFCURVE",
"404 273 CURVE SMOOTH",
"404 139 OFFCURVE",
"345 72 OFFCURVE",
"267 72 CURVE SMOOTH",
"261 72 OFFCURVE",
"254 72 OFFCURVE",
"248 72 CURVE",
"248 4 LINE",
"253 5 OFFCURVE",
"258 5 OFFCURVE",
"263 5 CURVE SMOOTH",
"372 5 OFFCURVE",
"396 -51 OFFCURVE",
"396 -94 CURVE SMOOTH",
"396 -169 OFFCURVE",
"362 -204 OFFCURVE",
"318 -225 CURVE",
"320 -215 OFFCURVE",
"321 -200 OFFCURVE",
"321 -191 CURVE SMOOTH",
"321 -119 OFFCURVE",
"269 -83 OFFCURVE",
"213 -83 CURVE SMOOTH",
"148 -83 OFFCURVE",
"100 -127 OFFCURVE",
"100 -187 CURVE SMOOTH",
"100 -261 OFFCURVE",
"158 -293 OFFCURVE",
"243 -293 CURVE SMOOTH"
);
},
{
closed = 1;
nodes = (
"188 -234 OFFCURVE",
"167 -215 OFFCURVE",
"167 -187 CURVE SMOOTH",
"167 -158 OFFCURVE",
"188 -138 OFFCURVE",
"214 -138 CURVE SMOOTH",
"239 -138 OFFCURVE",
"260 -158 OFFCURVE",
"260 -187 CURVE SMOOTH",
"260 -215 OFFCURVE",
"239 -234 OFFCURVE",
"214 -234 CURVE SMOOTH"
);
}
);
width = 543;
}
);
unicode = 19C6;
},
{
glyphname = uni19C8;
lastChange = "2017-03-13 14:11:56 +0000";
layers = (
{
layerId = UUID0;
paths = (
{
closed = 1;
nodes = (
"394 -10 OFFCURVE",
"463 74 OFFCURVE",
"463 153 CURVE SMOOTH",
"463 250 OFFCURVE",
"371 302 OFFCURVE",
"282 302 CURVE SMOOTH",
"232 302 OFFCURVE",
"182 283 OFFCURVE",
"139 250 CURVE",
"139 256 OFFCURVE",
"139 263 OFFCURVE",
"139 270 CURVE SMOOTH",
"139 412 OFFCURVE",
"197 479 OFFCURVE",
"294 479 CURVE SMOOTH",
"334 479 OFFCURVE",
"371 462 OFFCURVE",
"401 436 CURVE",
"452 483 LINE",
"395 534 OFFCURVE",
"339 546 OFFCURVE",
"290 546 CURVE SMOOTH",
"161 546 OFFCURVE",
"49 439 OFFCURVE",
"49 261 CURVE SMOOTH",
"49 83 OFFCURVE",
"168 -10 OFFCURVE",
"280 -10 CURVE SMOOTH"
);
},
{
closed = 1;
nodes = (
"219 58 OFFCURVE",
"170 100 OFFCURVE",
"149 179 CURVE",
"182 217 OFFCURVE",
"227 234 OFFCURVE",
"271 234 CURVE SMOOTH",
"336 234 OFFCURVE",
"373 196 OFFCURVE",
"373 148 CURVE SMOOTH",
"373 83 OFFCURVE",
"326 58 OFFCURVE",
"279 58 CURVE SMOOTH"
);
}
);
width = 512;
}
);
unicode = 19C8;
},
{
glyphname = uni19C9;
lastChange = "2017-03-13 14:11:56 +0000";
layers = (
{
layerId = UUID0;
paths = (
{
closed = 1;
nodes = (
"345 -10 OFFCURVE",
"410 6 OFFCURVE",
"473 74 CURVE",
"422 122 LINE",
"389 83 OFFCURVE",
"344 58 OFFCURVE",
"294 58 CURVE SMOOTH",
"197 58 OFFCURVE",
"139 125 OFFCURVE",
"139 267 CURVE SMOOTH",
"139 276 LINE",
"181 243 OFFCURVE",
"232 225 OFFCURVE",
"282 225 CURVE SMOOTH",
"363 225 OFFCURVE",
"463 294 OFFCURVE",
"463 391 CURVE SMOOTH",
"463 470 OFFCURVE",
"400 546 OFFCURVE",
"280 546 CURVE SMOOTH",
"168 546 OFFCURVE",
"49 448 OFFCURVE",
"49 270 CURVE SMOOTH",
"49 92 OFFCURVE",
"161 -10 OFFCURVE",
"290 -10 CURVE SMOOTH"
);
},
{
closed = 1;
nodes = (
"226 292 OFFCURVE",
"180 310 OFFCURVE",
"147 349 CURVE",
"167 434 OFFCURVE",
"217 479 OFFCURVE",
"279 479 CURVE SMOOTH",
"326 479 OFFCURVE",
"373 453 OFFCURVE",
"373 388 CURVE SMOOTH",
"373 340 OFFCURVE",
"336 292 OFFCURVE",
"271 292 CURVE SMOOTH"
);
}
);
width = 522;
}
);
unicode = 19C9;
},
{
glyphname = uni19D0;
lastChange = "2017-03-13 14:11:56 +0000";
layers = (
{
layerId = UUID0;
paths = (
{
closed = 1;
nodes = (
"423 -10 OFFCURVE",
"505 110 OFFCURVE",
"505 269 CURVE SMOOTH",
"505 426 OFFCURVE",
"422 546 OFFCURVE",
"278 546 CURVE SMOOTH",
"134 546 OFFCURVE",
"49 426 OFFCURVE",
"49 269 CURVE SMOOTH",
"49 110 OFFCURVE",
"143 -10 OFFCURVE",
"275 -10 CURVE SMOOTH"
);
},
{
closed = 1;
nodes = (
"188 58 OFFCURVE",
"139 142 OFFCURVE",
"139 269 CURVE SMOOTH",
"139 396 OFFCURVE",
"187 479 OFFCURVE",
"276 479 CURVE SMOOTH",
"371 479 OFFCURVE",
"416 396 OFFCURVE",
"416 269 CURVE SMOOTH",
"416 142 OFFCURVE",
"371 58 OFFCURVE",
"277 58 CURVE SMOOTH"
);
}
);
width = 554;
}
);
unicode = 19D0;
},
{
glyphname = uni19D1;
lastChange = "2017-03-13 14:11:56 +0000";
layers = (
{
layerId = UUID0;
paths = (
{
closed = 1;
nodes = (
"372 -10 OFFCURVE",
"494 80 OFFCURVE",
"494 270 CURVE SMOOTH",
"494 468 OFFCURVE",
"382 546 OFFCURVE",
"253 546 CURVE SMOOTH",
"184 546 OFFCURVE",
"108 516 OFFCURVE",
"58 447 CURVE",
"122 410 LINE",
"155 460 OFFCURVE",
"208 479 OFFCURVE",
"249 479 CURVE SMOOTH",
"346 479 OFFCURVE",
"404 405 OFFCURVE",
"404 271 CURVE SMOOTH",
"404 142 OFFCURVE",
"345 58 OFFCURVE",
"254 58 CURVE SMOOTH",
"186 58 OFFCURVE",
"125 106 OFFCURVE",
"104 153 CURVE",
"39 116 LINE",
"98 19 OFFCURVE",
"178 -10 OFFCURVE",
"250 -10 CURVE SMOOTH"
);
}
);
width = 543;
}
);
unicode = 19D1;
},
{
glyphname = uni19D2;
lastChange = "2017-03-13 14:11:56 +0000";
layers = (
{
layerId = UUID0;
paths = (
{
closed = 1;
nodes = (
"198 -278 OFFCURVE",
"291 -80 OFFCURVE",
"291 169 CURVE SMOOTH",
"291 373 LINE SMOOTH",
"291 490 OFFCURVE",
"230 546 OFFCURVE",
"176 546 CURVE SMOOTH",
"152 546 OFFCURVE",
"137 543 OFFCURVE",
"124 539 CURVE",
"130 474 LINE",
"142 477 OFFCURVE",
"147 479 OFFCURVE",
"163 479 CURVE SMOOTH",
"189 479 OFFCURVE",
"204 459 OFFCURVE",
"204 427 CURVE SMOOTH",
"204 169 LINE SMOOTH",
"204 -13 OFFCURVE",
"186 -211 OFFCURVE",
"3 -211 CURVE SMOOTH",
"-17 -211 OFFCURVE",
"-42 -205 OFFCURVE",
"-65 -194 CURVE",
"-98 -259 LINE",
"-64 -273 OFFCURVE",
"-34 -278 OFFCURVE",
"-4 -278 CURVE SMOOTH"
);
}
);
width = 359;
}
);
unicode = 19D2;
},
{
glyphname = uni19D3;
lastChange = "2017-03-13 14:11:56 +0000";
layers = (
{
layerId = UUID0;
paths = (
{
closed = 1;
nodes = (
"415 -220 OFFCURVE",
"440 -216 OFFCURVE",
"455 -211 CURVE",
"442 -145 LINE",
"426 -150 OFFCURVE",
"404 -152 OFFCURVE",
"390 -152 CURVE SMOOTH",
"313 -152 OFFCURVE",
"246 -115 OFFCURVE",
"168 7 CURVE",
"193 -3 OFFCURVE",
"219 -10 OFFCURVE",
"244 -10 CURVE SMOOTH",
"366 -10 OFFCURVE",
"489 80 OFFCURVE",
"489 270 CURVE SMOOTH",
"489 468 OFFCURVE",
"377 546 OFFCURVE",
"248 546 CURVE SMOOTH",
"179 546 OFFCURVE",
"103 516 OFFCURVE",
"52 447 CURVE",
"116 410 LINE",
"149 460 OFFCURVE",
"203 479 OFFCURVE",
"243 479 CURVE SMOOTH",
"341 479 OFFCURVE",
"399 405 OFFCURVE",
"399 271 CURVE SMOOTH",
"399 142 OFFCURVE",
"339 58 OFFCURVE",
"249 58 CURVE SMOOTH",
"168 58 OFFCURVE",
"132 95 OFFCURVE",
"104 142 CURVE",
"39 109 LINE",
"99 -50 OFFCURVE",
"218 -220 OFFCURVE",
"395 -220 CURVE SMOOTH"
);
}
);
width = 538;
}
);
unicode = 19D3;
},
{
glyphname = uni19D4;
lastChange = "2017-03-13 14:11:56 +0000";
layers = (
{
layerId = UUID0;
paths = (
{
closed = 1;
nodes = (
"319 -220 OFFCURVE",
"439 -50 OFFCURVE",
"499 107 CURVE",
"434 142 LINE",
"405 95 OFFCURVE",
"369 58 OFFCURVE",
"289 58 CURVE SMOOTH",
"198 58 OFFCURVE",
"139 142 OFFCURVE",
"139 271 CURVE SMOOTH",
"139 405 OFFCURVE",
"197 479 OFFCURVE",
"294 479 CURVE SMOOTH",
"334 479 OFFCURVE",
"388 460 OFFCURVE",
"421 410 CURVE",
"485 447 LINE",
"435 516 OFFCURVE",
"359 546 OFFCURVE",
"290 546 CURVE SMOOTH",
"161 546 OFFCURVE",
"49 468 OFFCURVE",
"49 270 CURVE SMOOTH",
"49 80 OFFCURVE",
"171 -10 OFFCURVE",
"293 -10 CURVE SMOOTH",
"318 -10 OFFCURVE",
"344 -3 OFFCURVE",
"370 7 CURVE",
"291 -115 OFFCURVE",
"224 -152 OFFCURVE",
"148 -152 CURVE SMOOTH",
"133 -152 OFFCURVE",
"112 -150 OFFCURVE",
"95 -145 CURVE",
"83 -211 LINE",
"98 -216 OFFCURVE",
"123 -220 OFFCURVE",
"143 -220 CURVE SMOOTH"
);
}
);
width = 538;
}
);
unicode = 19D4;
},
{
glyphname = uni19D5;
lastChange = "2017-03-13 14:11:56 +0000";
layers = (
{
layerId = UUID0;
paths = (
{
closed = 1;
nodes = (
"650 -278 OFFCURVE",
"728 -10 OFFCURVE",
"728 284 CURVE SMOOTH",
"728 417 OFFCURVE",
"673 546 OFFCURVE",
"528 546 CURVE SMOOTH",
"483 546 OFFCURVE",
"419 517 OFFCURVE",
"388 438 CURVE",
"357 517 OFFCURVE",
"292 546 OFFCURVE",
"249 546 CURVE SMOOTH",
"104 546 OFFCURVE",
"49 417 OFFCURVE",
"49 284 CURVE SMOOTH",
"49 159 OFFCURVE",
"104 55 OFFCURVE",
"213 -5 CURVE",
"240 61 LINE",
"177 85 OFFCURVE",
"139 167 OFFCURVE",
"139 284 CURVE SMOOTH",
"139 401 OFFCURVE",
"169 479 OFFCURVE",
"245 479 CURVE SMOOTH",
"307 479 OFFCURVE",
"340 431 OFFCURVE",
"346 338 CURVE",
"431 338 LINE",
"437 431 OFFCURVE",
"469 479 OFFCURVE",
"531 479 CURVE SMOOTH",
"607 479 OFFCURVE",
"638 401 OFFCURVE",
"638 284 CURVE SMOOTH",
"638 -24 OFFCURVE",
"595 -211 OFFCURVE",
"498 -211 CURVE SMOOTH",
"477 -211 OFFCURVE",
"451 -206 OFFCURVE",
"427 -194 CURVE",
"391 -253 LINE",
"428 -271 OFFCURVE",
"458 -278 OFFCURVE",
"485 -278 CURVE SMOOTH"
);
}
);
width = 776;
}
);
unicode = 19D5;
},
{
glyphname = uni19D6;
lastChange = "2017-03-13 14:11:56 +0000";
layers = (
{
layerId = UUID0;
paths = (
{
closed = 1;
nodes = (
"505 -10 OFFCURVE",
"579 69 OFFCURVE",
"579 143 CURVE SMOOTH",
"579 284 OFFCURVE",
"345 311 OFFCURVE",
"345 404 CURVE SMOOTH",
"345 443 OFFCURVE",
"371 479 OFFCURVE",
"428 479 CURVE SMOOTH",
"470 479 OFFCURVE",
"498 468 OFFCURVE",
"531 440 CURVE",
"577 494 LINE",
"540 527 OFFCURVE",
"489 546 OFFCURVE",
"425 546 CURVE SMOOTH",
"322 546 OFFCURVE",
"255 477 OFFCURVE",
"255 409 CURVE SMOOTH",
"255 272 OFFCURVE",
"489 254 OFFCURVE",
"489 144 CURVE SMOOTH",
"489 83 OFFCURVE",
"439 58 OFFCURVE",
"369 58 CURVE SMOOTH",
"224 58 OFFCURVE",
"139 172 OFFCURVE",
"139 386 CURVE SMOOTH",
"139 663 OFFCURVE",
"197 782 OFFCURVE",
"336 782 CURVE SMOOTH",
"376 782 OFFCURVE",
"436 763 OFFCURVE",
"463 713 CURVE",
"528 764 LINE",
"475 832 OFFCURVE",
"407 850 OFFCURVE",
"349 850 CURVE SMOOTH",
"183 850 OFFCURVE",
"49 683 OFFCURVE",
"49 402 CURVE SMOOTH",
"49 154 OFFCURVE",
"175 -10 OFFCURVE",
"371 -10 CURVE SMOOTH"
);
}
);
width = 628;
}
);
unicode = 19D6;
},
{
glyphname = uni19D7;
lastChange = "2017-03-13 14:11:56 +0000";
layers = (
{
layerId = UUID0;
paths = (
{
closed = 1;
nodes = (
"753 -278 OFFCURVE",
"803 -267 OFFCURVE",
"825 -253 CURVE",
"792 -196 LINE",
"777 -200 OFFCURVE",
"749 -211 OFFCURVE",
"726 -211 CURVE SMOOTH",
"707 -211 OFFCURVE",
"675 -208 OFFCURVE",
"675 -159 CURVE SMOOTH",
"675 -105 OFFCURVE",
"728 113 OFFCURVE",
"728 284 CURVE SMOOTH",
"728 417 OFFCURVE",
"673 546 OFFCURVE",
"528 546 CURVE SMOOTH",
"483 546 OFFCURVE",
"419 517 OFFCURVE",
"388 438 CURVE",
"357 517 OFFCURVE",
"292 546 OFFCURVE",
"249 546 CURVE SMOOTH",
"104 546 OFFCURVE",
"49 417 OFFCURVE",
"49 284 CURVE SMOOTH",
"49 159 OFFCURVE",
"104 55 OFFCURVE",
"213 -5 CURVE",
"240 61 LINE",
"177 85 OFFCURVE",
"139 167 OFFCURVE",
"139 284 CURVE SMOOTH",
"139 401 OFFCURVE",
"169 479 OFFCURVE",
"245 479 CURVE SMOOTH",
"307 479 OFFCURVE",
"340 431 OFFCURVE",
"346 338 CURVE",
"431 338 LINE",
"437 431 OFFCURVE",
"469 479 OFFCURVE",
"531 479 CURVE SMOOTH",
"607 479 OFFCURVE",
"638 401 OFFCURVE",
"638 284 CURVE SMOOTH",
"638 26 OFFCURVE",
"609 -69 OFFCURVE",
"609 -150 CURVE SMOOTH",
"609 -207 OFFCURVE",
"662 -278 OFFCURVE",
"734 -278 CURVE SMOOTH"
);
}
);
width = 776;
}
);
unicode = 19D7;
},
{
glyphname = uni19D8;
lastChange = "2017-03-13 14:11:56 +0000";
layers = (
{
layerId = UUID0;
paths = (
{
closed = 1;
nodes = (
"108 0 LINE",
"177 117 OFFCURVE",
"251 289 OFFCURVE",
"281 428 CURVE",
"311 289 OFFCURVE",
"385 117 OFFCURVE",
"454 0 CURVE",
"546 0 LINE",
"444 159 OFFCURVE",
"361 363 OFFCURVE",
"324 536 CURVE",
"239 536 LINE",
"202 363 OFFCURVE",
"117 160 OFFCURVE",
"15 0 CURVE"
);
}
);
width = 561;
}
);
unicode = 19D8;
},
{
glyphname = uni19D9;
lastChange = "2017-03-13 14:11:56 +0000";
layers = (
{
layerId = UUID0;
paths = (
{
closed = 1;
nodes = (
"431 -278 OFFCURVE",
"501 -247 OFFCURVE",
"549 -190 CURVE",
"498 -146 LINE",
"463 -191 OFFCURVE",
"411 -211 OFFCURVE",
"347 -211 CURVE SMOOTH",
"172 -211 OFFCURVE",
"139 -31 OFFCURVE",
"139 151 CURVE SMOOTH",
"139 380 OFFCURVE",
"216 479 OFFCURVE",
"339 479 CURVE SMOOTH",
"420 479 OFFCURVE",
"459 427 OFFCURVE",
"459 343 CURVE SMOOTH",
"459 287 OFFCURVE",
"432 229 OFFCURVE",
"375 229 CURVE SMOOTH",
"340 229 OFFCURVE",
"312 249 OFFCURVE",
"312 292 CURVE SMOOTH",
"312 301 OFFCURVE",
"313 310 OFFCURVE",
"315 317 CURVE",
"241 353 LINE",
"232 337 OFFCURVE",
"227 318 OFFCURVE",
"227 297 CURVE SMOOTH",
"227 243 OFFCURVE",
"276 166 OFFCURVE",
"375 166 CURVE SMOOTH",
"480 166 OFFCURVE",
"549 253 OFFCURVE",
"549 346 CURVE SMOOTH",
"549 445 OFFCURVE",
"486 546 OFFCURVE",
"337 546 CURVE SMOOTH",
"153 546 OFFCURVE",
"49 355 OFFCURVE",
"49 149 CURVE SMOOTH",
"49 -48 OFFCURVE",
"130 -278 OFFCURVE",
"346 -278 CURVE SMOOTH"
);
}
);
width = 598;
}
);
unicode = 19D9;
},
{
glyphname = uni19DA;
lastChange = "2017-03-13 14:11:56 +0000";
layers = (
{
layerId = UUID0;
paths = (
{
closed = 1;
nodes = (
"529 774 LINE",
"529 695 OFFCURVE",
"523 534 OFFCURVE",
"491 445 CURVE",
"450 516 OFFCURVE",
"372 546 OFFCURVE",
"298 546 CURVE SMOOTH",
"168 546 OFFCURVE",
"49 461 OFFCURVE",
"49 270 CURVE SMOOTH",
"49 80 OFFCURVE",
"171 -10 OFFCURVE",
"293 -10 CURVE SMOOTH",
"365 -10 OFFCURVE",
"445 19 OFFCURVE",
"504 116 CURVE",
"439 153 LINE",
"418 106 OFFCURVE",
"357 58 OFFCURVE",
"289 58 CURVE SMOOTH",
"198 58 OFFCURVE",
"139 142 OFFCURVE",
"139 271 CURVE SMOOTH",
"139 405 OFFCURVE",
"197 479 OFFCURVE",
"294 479 CURVE SMOOTH",
"353 479 OFFCURVE",
"417 448 OFFCURVE",
"432 368 CURVE",
"479 372 OFFCURVE",
"501 374 OFFCURVE",
"515 376 CURVE",
"595 506 OFFCURVE",
"616 699 OFFCURVE",
"618 760 CURVE"
);
}
);
width = 617;
}
);
unicode = 19DA;
},
{
glyphname = uni19DE;
lastChange = "2017-03-13 14:11:56 +0000";
layers = (
{
layerId = UUID0;
paths = (
{
closed = 1;
nodes = (
"308 -10 OFFCURVE",
"343 2 OFFCURVE",
"374 29 CURVE",
"331 81 LINE",
"311 64 OFFCURVE",
"287 58 OFFCURVE",
"261 58 CURVE SMOOTH",
"183 58 OFFCURVE",
"139 144 OFFCURVE",
"139 278 CURVE SMOOTH",
"139 421 OFFCURVE",
"192 479 OFFCURVE",
"249 479 CURVE SMOOTH",
"459 479 OFFCURVE",
"308 -10 OFFCURVE",
"581 -10 CURVE SMOOTH",
"692 -10 OFFCURVE",
"751 97 OFFCURVE",
"751 229 CURVE SMOOTH",
"751 329 OFFCURVE",
"720 445 OFFCURVE",
"720 566 CURVE SMOOTH",
"720 723 OFFCURVE",
"752 782 OFFCURVE",
"824 782 CURVE SMOOTH",
"845 782 OFFCURVE",
"871 777 OFFCURVE",
"895 765 CURVE",
"934 825 LINE",
"896 842 OFFCURVE",
"864 850 OFFCURVE",
"837 850 CURVE SMOOTH",
"700 850 OFFCURVE",
"630 670 OFFCURVE",
"630 570 CURVE SMOOTH",
"630 438 OFFCURVE",
"661 333 OFFCURVE",
"661 198 CURVE SMOOTH",
"661 91 OFFCURVE",
"630 58 OFFCURVE",
"581 58 CURVE SMOOTH",
"404 58 OFFCURVE",
"538 546 OFFCURVE",
"248 546 CURVE SMOOTH",
"137 546 OFFCURVE",
"49 434 OFFCURVE",
"49 279 CURVE SMOOTH",
"49 111 OFFCURVE",
"150 -10 OFFCURVE",
"259 -10 CURVE SMOOTH"
);
}
);
width = 836;
}
);
unicode = 19DE;
},
{
export = 0;
glyphname = "finalcons-mark";
lastChange = "2017-03-13 14:11:56 +0000";
layers = (
{
layerId = UUID0;
paths = (
{
closed = 1;
nodes = (
"321 -293 OFFCURVE",
"420 24 OFFCURVE",
"420 260 CURVE",
"324 138 LINE",
"322 33 OFFCURVE",
"300 -91 OFFCURVE",
"263 -169 CURVE",
"255 -120 OFFCURVE",
"210 -83 OFFCURVE",
"159 -83 CURVE SMOOTH",
"87 -83 OFFCURVE",
"42 -127 OFFCURVE",
"42 -187 CURVE SMOOTH",
"42 -246 OFFCURVE",
"85 -293 OFFCURVE",
"156 -293 CURVE SMOOTH"
);
},
{
closed = 1;
nodes = (
"130 -234 OFFCURVE",
"109 -215 OFFCURVE",
"109 -187 CURVE SMOOTH",
"109 -158 OFFCURVE",
"130 -138 OFFCURVE",
"157 -138 CURVE SMOOTH",
"182 -138 OFFCURVE",
"203 -158 OFFCURVE",
"203 -187 CURVE SMOOTH",
"203 -215 OFFCURVE",
"182 -234 OFFCURVE",
"157 -234 CURVE SMOOTH"
);
}
);
width = 445;
}
);
},
{
export = 0;
glyphname = belowmk1;
lastChange = "2017-03-13 14:11:56 +0000";
layers = (
{
layerId = UUID0;
paths = (
{
closed = 1;
nodes = (
"413 -293 OFFCURVE",
"496 -248 OFFCURVE",
"496 -179 CURVE SMOOTH",
"496 -110 OFFCURVE",
"413 -63 OFFCURVE",
"272 -63 CURVE SMOOTH",
"132 -63 OFFCURVE",
"49 -110 OFFCURVE",
"49 -179 CURVE SMOOTH",
"49 -248 OFFCURVE",
"132 -293 OFFCURVE",
"272 -293 CURVE SMOOTH"
);
},
{
closed = 1;
nodes = (
"184 -234 OFFCURVE",
"122 -216 OFFCURVE",
"122 -179 CURVE SMOOTH",
"122 -141 OFFCURVE",
"184 -122 OFFCURVE",
"271 -122 CURVE SMOOTH",
"357 -122 OFFCURVE",
"423 -141 OFFCURVE",
"423 -179 CURVE SMOOTH",
"423 -216 OFFCURVE",
"357 -234 OFFCURVE",
"271 -234 CURVE SMOOTH"
);
}
);
width = 545;
}
);
},
{
export = 0;
glyphname = belowmk2;
lastChange = "2017-03-13 14:11:56 +0000";
layers = (
{
layerId = UUID0;
paths = (
{
closed = 1;
nodes = (
"344 -293 OFFCURVE",
"428 -247 OFFCURVE",
"428 -178 CURVE SMOOTH",
"428 -109 OFFCURVE",
"344 -63 OFFCURVE",
"238 -63 CURVE SMOOTH",
"132 -63 OFFCURVE",
"49 -109 OFFCURVE",
"49 -178 CURVE SMOOTH",
"49 -247 OFFCURVE",
"132 -293 OFFCURVE",
"238 -293 CURVE SMOOTH"
);
},
{
closed = 1;
nodes = (
"160 -233 OFFCURVE",
"122 -210 OFFCURVE",
"122 -178 CURVE SMOOTH",
"122 -145 OFFCURVE",
"160 -122 OFFCURVE",
"236 -122 CURVE SMOOTH",
"313 -122 OFFCURVE",
"354 -145 OFFCURVE",
"354 -178 CURVE SMOOTH",
"354 -210 OFFCURVE",
"313 -233 OFFCURVE",
"236 -233 CURVE SMOOTH"
);
}
);
width = 477;
}
);
},
{
export = 0;
glyphname = abovemk1;
lastChange = "2017-03-13 14:11:56 +0000";
layers = (
{
layerId = UUID0;
paths = (
{
closed = 1;
nodes = (
"124 605 LINE",
"152 637 OFFCURVE",
"175 673 OFFCURVE",
"196 712 CURVE",
"213 681 OFFCURVE",
"248 627 OFFCURVE",
"269 605 CURVE",
"354 605 LINE",
"319 629 OFFCURVE",
"256 704 OFFCURVE",
"222 762 CURVE",
"176 762 LINE",
"140 705 OFFCURVE",
"92 647 OFFCURVE",
"39 605 CURVE"
);
}
);
width = 393;
}
);
},
{
glyphname = uni200C;
lastChange = "2017-03-13 14:11:56 +0000";
layers = (
{
layerId = UUID0;
paths = (
{
closed = 1;
nodes = (
"18 89 LINE",
"18 814 LINE",
"-18 814 LINE",
"-18 89 LINE"
);
}
);
width = 0;
}
);
note = afii61664;
unicode = 200C;
},
{
glyphname = uni200D;
lastChange = "2017-03-13 14:11:56 +0000";
layers = (
{
layerId = UUID0;
paths = (
{
closed = 1;
nodes = (
"18 89 LINE",
"18 668 LINE",
"83 602 LINE",
"107 625 LINE",
"23 708 LINE",
"107 790 LINE",
"83 814 LINE",
"0 730 LINE",
"-83 814 LINE",
"-107 790 LINE",
"-23 708 LINE",
"-107 625 LINE",
"-83 602 LINE",
"-18 668 LINE",
"-18 89 LINE"
);
}
);
width = 0;
}
);
note = afii301;
unicode = 200D;
},
